P3
# CREATOR: GIMP PNM Filter Version 1.1
64 64
255
109
67
255
138
79
255
161
88
255
170
91
255
178
95
255
188
98
255
196
102
255
205
105
255
214
109
255
223
112
255
232
116
255
241
119
255
249
123
255
255
126
253
254
132
249
255
136
243
254
140
239
254
145
234
253
150
229
253
155
225
253
159
220
252
164
215
252
169
211
252
173
205
251
178
201
251
182
196
251
187
192
251
190
190
250
193
186
251
196
183
250
199
180
250
202
176
249
206
172
249
209
170
249
213
166
249
216
163
249
218
160
249
223
156
248
225
152
248
229
150
247
232
146
247
236
142
248
238
140
248
242
136
238
242
137
228
243
137
219
243
136
210
244
137
200
244
137
191
245
137
181
245
138
172
246
138
163
247
138
153
247
139
144
247
139
134
248
139
126
249
140
116
249
139
106
250
140
97
250
140
88
251
140
79
251
140
68
252
141
59
252
141
179
95
255
187
98
255
197
102
255
205
105
255
214
110
255
223
112
255
232
116
255
241
120
255
250
123
255
255
127
253
254
132
248
255
137
244
254
141
239
253
146
234
253
150
230
253
155
224
253
159
220
252
164
215
252
169
210
252
174
206
252
178
201
252
183
196
251
186
193
250
189
189
251
193
186
250
196
183
250
199
179
250
203
176
249
206
172
250
209
169
249
212
166
249
216
163
249
219
159
248
223
156
248
226
153
248
229
149
248
232
146
247
236
143
248
238
140
247
242
136
237
242
136
228
243
137
219
244
136
209
244
137
200
244
137
191
245
138
182
245
138
172
247
139
162
247
139
153
247
139
144
248
139
134
248
139
125
249
140
116
249
139
106
249
139
97
251
140
87
251
141
77
251
141
68
252
141
59
253
141
50
253
141
40
254
142
31
254
142
22
255
142
214
110
255
223
112
255
233
116
255
241
119
255
250
123
255
255
127
253
254
131
248
254
137
243
253
142
239
253
145
234
253
151
229
253
155
225
252
160
220
253
164
215
252
169
210
252
174
206
252
178
201
252
183
196
251
186
193
251
189
189
250
193
185
250
196
182
250
200
179
249
203
175
250
206
172
249
209
169
249
212
165
249
215
162
249
219
159
248
222
156
248
225
152
248
229
149
248
232
146
247
235
142
247
239
139
246
242
136
237
242
137
228
243
137
219
244
137
209
244
137
200
244
137
190
245
138
181
246
138
172
246
138
162
247
138
153
247
138
143
248
138
134
249
139
124
249
139
115
250
139
106
250
140
96
250
140
87
251
140
78
251
140
68
252
141
58
252
142
49
253
141
40
254
142
31
254
142
22
255
142
16
251
143
17
240
143
17
230
143
19
219
143
250
123
255
254
127
253
254
131
248
254
136
243
254
141
239
253
146
234
253
150
229
253
155
224
252
160
219
253
164
215
252
169
210
252
174
205
251
179
201
251
183
196
251
187
193
250
190
189
251
193
185
251
197
183
250
200
179
250
202
175
249
206
172
249
210
169
249
213
165
249
216
163
249
219
159
248
222
156
248
226
152
248
229
149
248
232
145
247
235
142
248
239
139
246
242
136
237
242
136
228
243
137
219
244
137
208
245
137
199
244
137
190
245
137
181
245
138
171
246
139
162
247
139
153
247
139
143
248
139
134
248
139
124
249
140
115
249
139
106
250
140
96
250
140
87
251
141
77
252
140
67
252
140
58
253
141
49
253
142
39
254
141
30
254
142
21
255
142
16
250
143
17
240
143
17
229
143
19
219
144
19
207
144
21
197
144
21
186
145
23
176
145
254
141
238
254
146
234
253
151
229
253
155
224
253
160
220
252
164
215
252
169
210
251
174
205
251
178
200
251
183
196
251
187
192
251
190
189
251
194
186
251
197
182
250
200
179
250
203
176
250
206
172
250
209
169
249
213
166
249
216
162
248
219
158
249
223
156
248
226
152
248
229
149
248
232
145
248
236
142
247
239
139
246
242
136
236
243
136
227
243
137
218
244
136
209
245
137
199
244
137
190
246
137
181
245
138
171
246
138
162
246
138
152
247
138
142
248
139
133
248
140
124
249
139
115
249
139
105
250
140
96
251
140
87
251
141
77
251
141
68
252
141
59
253
142
48
253
141
40
254
142
30
254
142
21
255
142
16
250
142
16
240
143
18
229
144
19
218
144
20
208
144
20
197
145
22
186
145
23
175
145
23
166
145
24
161
145
25
157
146
25
152
146
252
160
220
253
165
215
252
170
210
252
174
205
251
179
201
251
183
196
251
187
192
250
190
189
250
193
185
250
196
182
250
200
179
250
203
175
250
207
172
249
210
169
249
213
166
249
216
162
249
219
159
249
223
156
248
226
152
248
229
149
248
233
145
248
236
142
248
239
139
246
242
136
237
243
136
227
243
137
218
243
137
208
244
138
199
244
137
189
245
138
180
246
138
171
246
138
161
247
138
152
247
139
142
248
138
133
248
139
123
249
139
115
249
140
105
250
140
96
250
140
87
251
140
77
252
140
67
252
141
58
253
142
49
253
142
39
254
142
30
254
142
20
254
142
15
250
142
16
239
143
17
228
143
19
218
144
19
207
144
20
197
145
22
185
145
22
175
146
24
167
145
23
162
146
24
156
146
25
152
146
25
147
146
25
143
146
26
138
147
26
133
146
251
179
200
251
183
195
251
187
192
250
190
188
250
193
186
250
196
182
250
200
179
250
203
176
249
207
172
249
210
168
249
213
166
249
216
162
248
219
159
248
223
156
248
227
152
248
230
149
248
232
145
248
236
142
247
239
139
246
242
136
236
243
136
227
243
137
217
244
137
208
244
137
199
244
137
189
245
138
180
246
138
171
246
138
161
247
139
152
247
139
142
248
139
133
248
139
123
249
140
114
250
139
105
250
139
96
251
140
86
251
140
77
251
141
67
252
141
57
253
141
48
253
141
39
254
141
30
254
142
20
255
142
16
250
143
16
239
143
18
229
143
18
218
144
20
207
144
21
196
145
22
185
145
23
174
146
24
166
146
24
161
146
25
156
146
25
152
146
26
147
147
26
143
147
26
137
146
26
133
147
27
128
147
27
123
147
28
118
148
28
114
147
251
194
185
250
197
182
250
200
178
249
203
175
250
207
172
249
210
169
249
213
166
249
216
162
249
220
159
248
223
156
248
226
152
248
230
148
248
232
146
247
236
142
247
239
139
245
242
136
236
242
136
227
243
137
217
243
137
208
244
137
198
245
137
188
245
138
180
246
138
170
247
138
161
247
139
152
247
138
142
248
139
133
248
139
123
249
140
114
250
140
104
250
140
94
251
140
85
251
140
76
251
141
67
252
141
58
253
141
48
253
142
39
254
142
29
254
142
19
255
142
16
250
142
17
239
143
18
228
143
19
217
144
20
207
145
21
195
145
22
185
144
22
174
145
23
167
145
24
161
146
24
156
146
24
152
147
26
147
146
25
142
147
26
137
147
27
132
147
27
128
147
28
123
148
27
118
147
29
114
147
29
108
148
29
103
148
30
99
148
30
94
148
249
207
172
249
209
169
249
213
166
249
216
162
249
219
158
248
223
155
249
226
152
248
229
148
248
233
146
248
236
142
247
239
139
245
242
136
236
243
136
226
243
136
216
244
137
207
244
137
198
245
137
189
246
137
180
246
138
170
246
138
160
247
139
151
247
139
142
248
139
132
249
139
123
248
139
113
249
140
104
250
140
95
250
140
85
251
140
75
251
140
66
252
141
57
253
141
0
0
0
0
0
0
0
0
0
0
0
0
15
249
142
17
238
143
18
227
143
19
217
143
20
206
144
21
195
145
22
185
145
23
174
146
23
166
145
24
161
146
24
156
146
25
152
146
25
147
147
25
142
146
26
137
147
26
132
147
27
128
147
28
122
147
28
118
147
28
114
147
29
109
148
30
104
148
30
99
148
30
94
148
30
89
149
31
84
149
35
82
150
41
83
154
248
219
159
249
223
155
249
226
152
248
229
148
248
233
145
247
236
142
248
240
138
245
242
136
236
243
136
226
244
136
216
244
137
207
244
137
197
245
137
189
245
138
179
246
138
169
246
138
160
246
139
151
248
138
141
248
138
132
249
139
123
249
139
113
250
139
104
250
140
94
250
140
85
251
141
75
251
141
66
252
141
57
253
141
47
253
141
38
254
142
29
254
142
19
255
142
0
0
0
0
0
0
255
255
255
255
255
255
255
255
255
255
255
255
22
184
145
23
174
146
23
166
145
24
161
146
25
157
146
25
151
146
25
146
146
25
141
146
26
137
146
27
133
147
27
127
147
28
123
147
28
118
148
28
113
147
29
108
148
29
104
148
30
99
148
30
94
149
30
89
148
31
84
148
34
82
151
42
84
154
50
85
158
57
85
161
65
87
165
72
88
170
248
233
145
248
237
142
248
239
138
244
242
136
235
242
137
226
244
136
217
243
137
206
244
137
198
245
137
188
245
138
179
246
138
169
246
138
160
247
139
151
247
139
141
248
138
132
248
139
122
248
139
0
0
0
0
0
0
0
0
0
84
251
140
75
252
141
66
252
141
57
252
141
48
254
142
38
254
142
28
254
142
19
255
142
15
249
143
17
238
143
17
227
143
19
217
143
0
0
0
0
0
0
255
255
255
255
255
255
255
255
255
255
255
255
24
156
146
25
151
146
25
147
146
26
142
147
26
137
147
27
133
147
27
127
147
27
123
147
27
117
147
28
113
148
29
108
148
29
103
148
30
98
148
30
94
148
30
89
148
30
84
148
35
82
151
42
83
154
50
85
158
58
86
162
65
87
166
72
88
170
80
90
173
87
91
177
95
92
180
102
93
184
234
243
136
226
244
137
216
244
137
207
245
137
197
245
137
188
246
138
178
245
138
169
246
138
160
246
139
150
247
138
140
248
138
132
249
139
122
249
139
112
249
139
103
250
140
94
250
140
0
0
0
0
0
0
0
0
0
255
255
255
255
255
255
255
255
255
28
254
142
19
255
143
16
248
142
17
237
143
18
227
143
19
216
144
20
206
144
21
194
145
22
184
145
23
173
146
0
0
0
0
0
0
255
255
255
255
255
255
255
255
255
255
255
255
26
136
147
26
132
147
27
128
148
27
122
147
28
118
147
28
112
148
29
107
148
29
103
148
29
99
148
30
94
148
31
89
149
31
83
149
35
82
150
42
83
154
50
84
158
57
86
162
65
87
166
73
88
169
80
90
173
88
91
177
95
92
181
102
94
184
110
94
188
117
96
192
125
97
196
132
98
200
196
244
137
188
245
138
178
246
138
169
247
138
159
246
139
149
247
139
141
248
139
131
248
139
122
249
140
112
250
139
102
250
140
94
250
141
84
251
140
75
252
140
65
252
141
56
253
141
0
0
0
0
0
0
255
255
255
255
255
255
255
255
255
255
255
255
17
226
144
19
216
144
20
205
144
20
194
144
22
184
145
23
173
145
24
165
146
23
161
145
25
156
146
25
151
146
0
0
0
0
0
0
255
255
255
255
255
255
255
255
255
255
255
255
28
118
147
28
112
148
29
107
148
29
103
148
29
99
148
31
93
148
30
88
149
31
83
149
35
83
151
43
84
154
50
85
159
58
86
162
65
87
166
72
89
169
80
89
174
88
91
177
95
92
181
103
93
184
110
95
188
118
96
192
125
97
196
132
98
200
140
99
204
148
101
207
156
102
212
164
103
215
159
247
138
150
247
139
140
248
139
131
249
139
121
249
139
112
250
139
103
250
140
93
251
141
84
251
140
74
251
140
65
252
141
56
253
141
46
253
142
37
254
142
28
254
142
18
255
143
0
0
0
0
0
0
255
255
255
255
255
255
255
255
255
255
255
255
255
255
255
22
172
146
23
165
146
24
161
146
24
156
146
25
151
147
26
146
147
26
141
147
26
136
147
27
131
147
0
0
0
0
0
0
255
255
255
255
255
255
255
255
255
255
255
255
29
98
148
30
93
148
30
89
148
31
84
149
36
82
151
43
83
155
50
85
158
58
86
163
66
87
166
73
89
169
81
90
174
88
91
177
96
92
181
103
93
184
110
95
188
118
96
192
125
97
196
132
98
200
140
100
204
148
101
208
156
102
212
165
103
216
172
105
219
180
106
224
187
108
227
196
108
231
121
249
140
111
249
140
102
250
140
93
251
140
83
252
140
74
252
141
65
253
141
55
253
141
46
253
142
37
254
142
27
254
142
18
255
143
16
247
143
17
236
143
18
225
144
19
215
144
20
205
144
0
0
0
255
255
255
255
255
255
255
255
255
255
255
255
255
255
255
25
151
146
25
146
147
25
141
146
26
137
147
27
132
147
27
127
147
28
122
147
28
117
148
29
112
148
0
0
0
0
0
0
255
255
255
255
255
255
255
255
255
255
255
255
36
82
151
43
84
154
50
85
158
58
86
163
66
87
166
73
88
169
81
90
174
88
91
177
95
93
181
103
93
185
110
95
189
117
96
193
125
98
197
133
99
200
140
100
203
148
101
207
156
103
212
164
103
216
172
105
220
181
106
223
188
107
227
196
109
231
204
110
236
212
112
239
220
113
243
227
114
247
83
251
140
74
252
141
65
252
141
55
253
141
46
253
141
36
254
141
27
254
142
18
255
142
16
247
142
17
236
143
18
225
143
19
215
143
19
204
145
21
194
144
22
182
145
22
172
146
24
165
146
0
0
0
0
0
0
255
255
255
255
255
255
255
255
255
255
255
255
27
132
146
27
126
147
27
122
147
27
117
148
28
113
147
29
107
148
29
103
148
30
98
148
31
93
149
0
0
0
0
0
0
255
255
255
255
255
255
255
255
255
255
255
255
255
255
255
74
89
169
80
89
174
88
91
177
96
92
181
103
94
185
111
95
189
118
96
192
126
97
196
133
98
200
141
100
204
149
101
208
157
102
212
164
103
216
172
105
220
181
106
224
188
107
228
196
109
232
204
110
236
212
112
240
219
113
243
228
115
248
235
116
251
235
115
249
236
113
247
236
113
245
45
253
142
36
254
142
27
254
142
18
255
142
16
247
143
17
235
143
17
225
144
19
215
144
20
204
144
21
193
144
22
182
145
23
172
146
23
165
146
24
160
145
25
155
146
25
150
147
26
145
146
0
0
0
0
0
0
255
255
255
255
255
255
255
255
255
255
255
255
28
112
148
29
107
148
29
102
148
29
97
148
30
93
149
30
88
149
31
83
148
36
83
152
44
84
155
0
0
0
0
0
0
255
255
255
255
255
255
255
255
255
255
255
255
255
255
255
103
93
185
111
95
189
118
96
192
126
97
196
134
98
200
142
100
204
150
101
208
157
102
212
165
104
216
172
105
219
180
106
223
188
107
228
196
109
232
204
111
236
212
112
240
220
112
244
228
114
247
236
115
251
235
114
250
236
114
247
236
112
246
235
112
244
236
111
242
237
110
241
236
110
239
16
247
143
17
235
143
18
224
144
19
214
144
20
203
144
21
192
144
22
182
146
23
171
145
23
164
146
24
160
146
24
156
146
25
150
146
25
145
147
26
141
146
26
136
147
26
131
146
27
126
148
0
0
0
0
0
0
255
255
255
255
255
255
255
255
255
255
255
255
30
93
148
31
88
148
31
83
149
36
82
152
44
84
155
51
85
159
59
86
163
67
87
166
74
88
171
0
0
0
0
0
0
255
255
255
255
255
255
255
255
255
255
255
255
255
255
255
133
99
200
142
100
204
150
101
208
157
102
212
165
103
216
173
105
220
181
106
224
189
108
228
197
109
232
204
111
236
212
112
239
221
113
243
228
114
247
235
116
251
236
114
249
236
114
248
236
113
245
236
112
244
236
111
242
236
110
240
237
109
238
237
109
237
236
108
235
237
106
233
237
106
232
20
203
144
21
193
145
22
181
145
23
171
146
23
164
145
24
159
146
24
155
146
24
150
146
26
145
146
25
140
147
26
136
146
26
131
147
27
126
147
28
121
147
28
116
147
28
112
147
29
107
148
0
0
0
0
0
0
255
255
255
255
255
255
255
255
255
255
255
255
44
84
156
52
85
159
59
86
163
67
88
167
74
89
171
81
90
174
89
92
178
96
93
181
104
94
185
0
0
0
0
0
0
255
255
255
255
255
255
255
255
255
255
255
255
255
255
255
166
103
216
174
105
220
181
106
224
189
108
228
197
109
232
205
110
236
213
112
239
220
113
243
228
114
247
236
115
251
235
114
250
235
113
247
236
112
246
236
112
244
236
111
242
236
110
240
237
109
238
237
108
237
236
108
235
236
107
234
237
106
231
237
105
230
237
104
228
237
103
227
237
102
225
24
165
146
24
159
146
25
155
146
25
150
146
26
145
146
25
140
147
26
136
146
27
131
147
27
126
147
28
121
147
28
116
147
29
112
147
29
107
148
29
102
148
29
97
148
30
92
148
31
88
148
0
0
0
0
0
0
255
255
255
255
255
255
255
255
255
255
255
255
255
255
255
82
89
174
89
91
178
96
93
181
104
94
186
112
95
189
119
96
192
126
97
197
134
98
200
0
0
0
0
0
0
255
255
255
255
255
255
255
255
255
255
255
255
255
255
255
197
109
232
205
111
236
213
112
240
221
113
244
229
115
247
235
115
251
236
114
249
236
114
248
236
113
245
236
112
244
236
111
242
236
110
240
236
109
238
237
109
237
236
107
235
237
107
233
236
106
231
237
105
230
238
104
228
238
104
226
237
102
225
238
101
223
238
101
222
238
100
220
238
99
217
26
145
146
26
140
146
26
136
146
27
131
147
27
126
147
27
121
148
28
116
148
28
112
147
29
106
148
29
102
148
30
97
148
30
92
148
31
87
149
32
83
149
37
83
152
45
83
156
52
85
159
0
0
0
0
0
0
255
255
255
255
255
255
255
255
255
255
255
255
255
255
255
111
95
189
119
96
193
126
97
196
134
99
200
142
100
205
150
101
208
158
102
212
166
104
217
0
0
0
0
0
0
255
255
255
255
255
255
255
255
255
255
255
255
255
255
255
255
255
255
235
115
251
235
115
249
235
113
247
236
113
246
236
111
244
236
111
242
236
110
240
237
109
239
237
108
237
237
107
235
237
107
233
237
106
232
237
105
229
237
105
228
238
103
226
238
103
225
238
102
223
237
100
221
238
100
219
238
99
218
238
98
216
238
97
214
239
96
212
239
96
211
27
126
147
28
121
147
28
116
147
29
111
147
29
107
148
30
101
148
30
97
148
31
92
148
31
87
149
31
82
149
38
82
152
45
83
155
52
85
159
60
86
163
67
87
167
75
89
171
83
90
174
0
0
0
0
0
0
255
255
255
255
255
255
255
255
255
255
255
255
255
255
255
142
100
205
150
101
209
158
103
213
167
103
216
174
105
220
181
106
224
190
108
229
198
109
232
0
0
0
0
0
0
255
255
255
255
255
255
255
255
255
255
255
255
255
255
255
255
255
255
236
112
243
237
111
242
237
110
240
236
109
239
237
108
237
237
107
235
237
106
234
237
105
231
237
105
230
237
104
228
237
103
226
238
102
225
237
101
223
238
101
221
238
99
219
238
99
217
238
98
216
238
97
214
238
96
212
239
95
210
239
95
209
239
93
207
239
93
205
239
92
203
29
106
148
29
101
148
30
97
149
30
92
149
31
87
148
31
82
148
38
83
151
45
84
155
53
85
159
60
86
164
67
88
167
74
89
171
83
90
174
90
91
178
97
92
182
105
94
186
112
95
190
0
0
0
0
0
0
255
255
255
255
255
255
255
255
255
255
255
255
255
255
255
174
105
220
182
106
224
190
108
228
198
109
232
206
110
237
214
112
241
222
113
244
229
114
248
0
0
0
0
0
0
255
255
255
255
255
255
255
255
255
255
255
255
255
255
255
255
255
255
236
109
236
237
108
235
236
107
233
237
105
232
237
105
229
237
104
228
238
103
226
237
103
224
237
101
222
238
101
221
238
100
219
239
99
217
238
98
216
239
98
214
238
96
212
238
96
210
239
95
208
239
94
206
240
93
205
239
92
203
240
91
202
239
91
200
240
89
198
240
88
196
30
87
148
31
83
149
38
82
152
45
84
155
52
85
160
60
87
164
68
88
167
75
88
171
83
91
174
90
91
179
98
93
182
105
93
186
112
95
189
120
97
194
128
98
197
135
99
201
143
100
204
0
0
0
0
0
0
255
255
255
255
255
255
255
255
255
255
255
255
255
255
255
206
110
237
214
112
240
222
113
244
230
114
248
235
115
250
236
114
249
236
113
247
236
113
246
0
0
0
0
0
0
255
255
255
255
255
255
255
255
255
255
255
255
255
255
255
255
255
255
237
105
230
238
104
228
237
103
226
238
102
224
237
102
222
238
100
220
238
100
219
238
99
218
238
98
216
239
97
214
239
96
212
238
96
210
239
95
209
239
93
207
240
93
205
240
92
203
239
91
202
239
90
200
240
90
198
240
89
196
240
87
195
241
87
193
240
86
191
240
86
189
53
85
160
60
87
164
68
87
167
76
89
171
83
90
174
90
92
178
97
92
182
105
94
185
113
95
190
120
96
193
128
97
197
135
99
201
143
100
205
152
101
208
159
103
213
167
104
217
175
106
221
0
0
0
0
0
0
255
255
255
255
255
255
255
255
255
255
255
255
255
255
255
236
115
251
235
115
249
235
114
247
236
112
246
236
112
243
237
111
242
236
110
240
236
109
239
0
0
0
0
0
0
255
255
255
255
255
255
255
255
255
255
255
255
255
255
255
255
255
255
238
101
223
238
101
220
238
100
219
238
99
217
239
98
216
238
97
214
238
96
212
239
96
210
239
95
208
239
94
207
239
93
205
239
92
204
240
91
201
240
91
199
240
90
198
240
89
196
240
88
194
240
87
193
241
87
191
241
85
189
240
84
187
241
84
186
241
82
183
241
82
182
83
91
175
91
91
178
98
92
182
106
94
186
113
95
189
120
96
193
127
97
198
136
99
201
143
100
205
151
101
209
159
103
213
167
104
217
175
105
221
183
107
225
190
108
228
199
109
232
207
111
237
0
0
0
0
0
0
255
255
255
255
255
255
255
255
255
255
255
255
255
255
255
236
112
243
236
110
242
236
110
240
236
109
239
237
109
237
237
107
235
237
106
233
237
106
231
0
0
0
0
0
0
255
255
255
255
255
255
255
255
255
255
255
255
255
255
255
255
255
255
239
98
216
239
98
214
238
96
212
239
95
211
239
95
209
239
94
206
239
93
205
240
92
203
240
92
201
239
90
200
240
89
198
240
89
196
240
88
194
241
87
193
240
86
191
240
85
190
241
85
187
240
83
186
241
83
184
241
82
182
241
81
180
241
80
178
242
79
176
241
79
175
114
95
190
121
96
193
128
98
198
135
99
201
144
100
205
152
101
210
160
103
213
167
104
217
175
106
221
183
107
225
191
108
229
199
109
233
207
111
237
214
112
240
223
113
244
230
115
248
236
115
251
0
0
0
0
0
0
255
255
255
255
255
255
255
255
255
255
255
255
255
255
255
236
108
236
237
107
235
236
106
233
237
106
231
238
105
230
237
104
227
238
103
226
238
102
224
238
101
222
0
0
0
255
255
255
255
255
255
255
255
255
255
255
255
255
255
255
255
255
255
239
94
209
239
94
207
239
93
204
239
92
203
239
91
201
240
90
200
240
89
197
240
89
196
240
88
195
240
87
193
240
86
190
240
85
189
241
85
187
241
84
186
241
83
184
241
82
182
242
81
180
241
80
179
242
79
176
242
78
175
241
78
173
242
77
172
242
76
170
242
75
168
144
100
205
152
102
209
160
103
213
167
104
217
176
106
221
184
107
225
191
108
229
199
109
233
207
111
237
215
112
241
222
114
244
230
115
249
235
115
251
235
114
249
235
113
247
236
112
245
236
111
243
236
111
242
0
0
0
255
255
255
255
255
255
255
255
255
255
255
255
255
255
255
237
105
230
237
104
228
238
103
225
237
102
224
237
102
222
238
101
220
238
100
219
238
98
217
238
98
215
0
0
0
0
0
0
255
255
255
255
255
255
255
255
255
255
255
255
255
255
255
240
91
201
240
91
199
239
89
198
239
89
196
240
87
194
240
87
192
240
86
191
240
85
190
241
84
187
241
84
186
241
82
184
241
81
182
241
81
181
242
80
178
241
79
176
242
78
175
242
77
174
242
77
172
242
76
169
242
75
168
242
74
166
242
73
164
243
72
162
243
71
161
176
106
221
183
106
226
192
108
229
200
110
233
207
111
237
215
112
241
222
114
245
231
114
248
235
115
250
236
114
249
236
113
247
236
113
245
236
112
243
237
111
241
236
110
240
237
110
238
237
108
236
237
107
235
0
0
0
0
0
0
255
255
255
255
255
255
255
255
255
255
255
255
255
255
255
238
100
221
238
100
219
238
99
217
238
98
216
238
97
214
238
97
211
239
96
210
239
94
208
0
0
0
0
0
0
255
255
255
255
255
255
255
255
255
255
255
255
255
255
255
240
88
194
240
86
192
240
86
191
240
85
189
241
85
188
241
83
185
240
83
184
241
82
182
241
81
180
241
80
178
241
79
176
0
0
0
0
0
0
0
0
0
242
76
170
242
75
168
242
74
167
242
74
165
243
73
162
242
71
161
243
71
160
243
70
158
243
69
156
244
68
154
207
111
238
215
112
241
223
113
245
231
115
249
235
115
250
236
114
248
236
114
247
235
112
246
236
112
243
236
111
241
236
110
239
236
109
238
237
108
236
237
107
235
237
107
233
237
106
231
237
105
229
237
104
228
0
0
0
0
0
0
255
255
255
255
255
255
255
255
255
255
255
255
255
255
255
238
97
214
239
96
212
239
95
210
238
95
208
239
94
207
239
93
204
240
92
203
240
91
201
240
91
200
0
0
0
255
255
255
255
255
255
255
255
255
255
255
255
255
255
255
240
84
188
241
83
186
241
82
184
241
82
182
241
81
180
241
80
179
241
79
177
241
78
175
241
77
173
242
77
171
242
75
169
0
0
0
0
0
0
255
255
255
255
255
255
255
255
255
243
71
159
243
70
157
243
69
156
244
68
154
244
67
152
243
67
150
244
65
149
244
64
147
236
115
250
235
114
248
236
114
247
236
113
245
236
111
244
237
110
241
236
110
240
236
109
238
237
108
236
237
108
235
237
107
233
237
106
231
237
104
229
237
104
227
238
103
226
237
102
224
238
102
222
238
100
221
0
0
0
0
0
0
255
255
255
255
255
255
255
255
255
255
255
255
255
255
255
239
94
206
239
93
205
240
92
202
239
91
201
239
90
200
240
90
198
240
89
196
240
88
194
240
86
192
240
86
190
0
0
0
255
255
255
255
255
255
255
255
255
255
255
255
241
81
180
241
80
179
241
79
176
242
78
175
242
78
173
242
77
171
242
75
170
242
75
167
242
74
167
242
73
164
243
72
163
0
0
0
0
0
0
255
255
255
255
255
255
255
255
255
243
68
152
243
66
150
244
65
149
244
65
147
245
64
145
244
63
143
244
62
141
245
61
140
236
111
243
236
110
241
237
110
240
237
109
238
236
108
237
236
107
234
236
106
232
237
105
231
237
105
229
237
104
227
237
103
225
237
102
224
237
102
222
238
100
220
238
99
219
238
98
217
238
98
215
238
97
213
0
0
0
0
0
0
255
255
255
255
255
255
255
255
255
255
255
255
255
255
255
239
91
199
239
89
198
240
89
195
240
87
194
241
87
192
240
86
191
241
85
189
241
85
187
241
84
185
241
83
184
241
81
181
241
81
180
255
255
255
255
255
255
255
255
255
242
77
173
242
76
171
242
75
169
242
75
168
242
74
166
242
74
164
243
72
162
242
71
161
243
71
159
243
70
157
243
68
155
0
0
0
0
0
0
255
255
255
255
255
255
255
255
255
244
64
144
244
63
143
245
62
141
245
61
140
245
60
138
244
59
136
245
58
134
245
58
132
236
108
236
237
107
235
237
107
232
237
106
231
237
105
229
237
104
227
238
103
226
237
102
223
238
101
222
238
100
221
238
99
219
239
99
217
239
98
215
239
97
213
238
97
212
239
95
209
239
94
208
239
94
206
239
93
205
0
0
0
255
255
255
255
255
255
255
255
255
255
255
255
255
255
255
240
87
192
240
86
191
241
85
189
241
84
187
241
84
186
241
83
184
241
81
182
241
81
180
241
80
178
242
79
176
242
79
174
242
77
173
242
77
171
242
76
169
242
75
167
242
74
166
242
73
164
243
73
162
242
72
160
243
70
159
243
69
157
243
68
155
243
68
154
244
67
152
244
66
150
244
65
148
0
0
0
0
0
0
255
255
255
255
255
255
255
255
255
245
61
138
245
59
136
245
58
135
246
58
133
246
57
132
246
57
130
245
56
129
245
55
128
237
105
229
237
104
228
237
102
226
237
102
223
238
101
222
238
101
221
238
100
219
238
99
217
238
98
216
239
97
213
238
96
212
239
95
209
239
95
208
239
94
207
239
92
204
239
92
202
239
91
201
239
90
199
239
89
197
0
0
0
0
0
0
255
255
255
255
255
255
255
255
255
255
255
255
241
83
186
241
82
183
241
81
182
241
81
180
242
80
178
241
79
177
242
78
174
242
77
173
242
77
171
242
76
169
243
75
168
243
74
166
243
73
165
242
72
162
243
71
161
243
70
159
243
70
157
243
69
156
244
68
153
243
67
152
244
66
150
244
65
148
244
65
146
245
64
145
244
63
143
0
0
0
0
0
0
0
0
0
255
255
255
255
255
255
255
255
255
245
57
132
245
56
130
245
56
129
246
55
128
245
55
126
246
54
126
245
54
124
246
53
123
238
101
222
238
100
220
238
100
219
238
98
217
238
98
215
238
97
213
239
96
212
238
95
210
239
95
208
239
94
206
239
93
205
239
92
203
240
91
201
240
90
199
240
89
197
240
88
196
240
88
194
240
87
192
240
86
191
0
0
0
0
0
0
255
255
255
255
255
255
255
255
255
255
255
255
241
80
178
241
79
177
242
78
174
242
78
173
242
77
171
242
76
170
242
75
167
242
74
166
243
73
164
243
73
162
243
71
160
243
71
158
243
69
158
243
68
156
243
68
154
244
67
151
244
66
150
243
65
148
244
64
147
245
64
145
244
63
143
244
62
142
245
61
139
245
60
138
245
59
136
0
0
0
0
0
0
255
255
255
255
255
255
255
255
255
255
255
255
246
55
126
245
54
125
245
53
124
246
53
123
246
52
121
246
52
120
246
51
118
247
50
118
239
97
215
238
97
214
238
96
212
239
95
210
239
94
208
239
93
206
239
92
204
240
92
203
239
91
201
240
90
199
240
89
197
240
88
196
240
87
194
240
87
193
240
86
190
240
85
188
241
84
187
241
83
185
241
82
184
241
82
181
242
81
180
255
255
255
255
255
255
255
255
255
255
255
255
242
77
171
242
75
169
242
75
168
242
74
166
243
73
164
242
72
162
243
71
160
243
71
158
243
69
157
243
69
155
243
67
153
244
67
152
244
66
150
244
65
149
244
65
147
245
63
145
245
63
143
244
62
141
245
61
139
245
60
138
245
60
136
246
58
134
245
58
133
245
57
132
245
57
130
0
0
0
0
0
0
255
255
255
255
255
255
255
255
255
255
255
255
246
52
121
247
52
120
246
51
118
246
51
117
246
50
116
247
49
115
247
48
114
247
48
112
239
95
208
239
94
206
239
93
204
239
92
203
240
91
201
239
90
199
240
89
197
240
89
195
240
87
194
241
86
192
240
86
190
240
85
189
241
84
186
240
84
185
241
82
183
241
81
181
241
80
180
242
80
178
241
79
176
242
78
175
241
77
172
242
76
171
242
75
169
242
75
168
242
73
165
242
73
164
242
72
162
243
71
161
243
70
159
243
70
157
244
69
155
243
68
153
244
67
151
244
66
150
244
66
148
244
64
147
244
64
145
245
62
142
244
62
142
245
61
139
244
60
137
245
60
136
245
58
135
245
58
133
245
57
131
245
57
130
245
56
129
245
56
127
246
55
126
246
54
125
0
0
0
0
0
0
255
255
255
255
255
255
255
255
255
255
255
255
246
49
116
247
49
115
247
48
114
247
48
113
247
47
111
247
47
110
247
46
109
247
45
107
240
91
201
239
90
199
240
89
197
240
88
196
240
88
194
240
87
192
240
86
191
241
85
189
241
84
187
241
83
185
241
82
183
241
82
181
241
81
180
241
79
178
242
79
177
241
78
174
241
77
173
242
77
171
242
76
169
242
75
168
243
73
166
242
73
164
242
72
162
243
71
160
243
70
159
243
70
157
244
69
155
243
68
154
243
67
151
244
66
150
243
66
148
244
65
147
244
63
144
244
63
143
245
62
141
245
61
140
245
60
138
245
59
136
245
59
135
245
57
133
246
57
131
245
57
130
245
56
128
246
56
128
245
55
126
246
54
125
245
53
124
246
53
122
246
52
121
246
52
120
0
0
0
0
0
0
255
255
255
255
255
255
255
255
255
247
48
113
247
47
111
247
46
110
247
46
109
247
45
107
247
45
107
248
44
105
248
43
103
248
43
102
240
87
194
240
87
192
240
86
190
240
85
188
241
84
186
241
83
185
241
82
183
241
81
181
241
81
179
241
80
178
242
79
176
242
78
174
242
78
172
242
76
171
243
76
169
243
75
167
242
73
166
242
73
164
243
72
162
242
71
160
243
71
158
243
70
157
243
69
155
244
68
153
244
67
152
244
66
150
244
66
149
244
64
146
244
64
145
244
63
142
245
61
141
245
61
139
245
60
138
245
59
136
245
58
134
246
58
132
246
57
131
245
57
130
246
55
129
245
55
127
246
54
126
245
54
125
245
53
123
246
53
122
246
52
122
246
52
120
246
51
118
247
50
117
246
49
116
0
0
0
0
0
0
0
0
0
255
255
255
255
255
255
255
255
255
247
45
107
248
45
106
247
44
105
247
43
103
248
43
102
248
43
101
248
42
100
248
41
99
248
40
97
241
84
187
241
83
185
241
83
184
241
82
182
242
81
180
242
80
178
242
79
177
242
78
174
242
77
173
0
0
0
0
0
0
0
0
0
0
0
0
243
73
163
243
72
163
243
71
160
243
70
158
243
69
156
243
69
155
244
68
154
244
67
152
244
66
150
244
65
148
244
65
147
244
64
145
244
63
143
245
61
141
244
61
139
245
60
138
245
59
136
245
58
134
245
58
132
245
57
131
245
57
130
245
56
129
246
55
127
246
54
127
246
54
125
246
53
124
246
53
123
246
52
122
246
51
120
247
51
119
247
50
117
246
49
116
247
49
115
247
49
114
247
48
113
0
0
0
0
0
0
0
0
0
255
255
255
255
255
255
255
255
255
255
255
255
248
42
103
248
42
101
248
41
100
248
41
98
248
40
98
248
40
96
249
39
95
248
38
93
249
38
93
241
81
179
241
80
177
242
79
176
242
78
174
242
77
173
242
76
171
242
75
169
243
74
168
242
74
166
0
0
0
0
0
0
255
255
255
255
255
255
255
255
255
255
255
255
243
68
153
244
67
151
244
66
150
244
65
148
244
64
146
245
63
144
244
63
143
244
62
141
245
61
140
245
60
137
245
59
135
245
58
134
245
58
132
245
57
131
245
56
130
245
56
128
246
55
127
245
55
126
246
54
125
246
54
123
246
52
123
246
52
121
247
52
120
247
51
119
246
50
117
246
50
116
247
49
115
246
48
114
247
48
112
247
47
111
247
46
109
247
46
109
248
45
108
0
0
0
0
0
0
255
255
255
255
255
255
255
255
255
255
255
255
255
255
255
248
41
97
248
40
96
249
40
95
249
39
93
248
38
92
249
37
91
249
37
90
249
36
89
249
35
88
242
77
173
242
76
170
242
75
169
242
75
168
242
73
166
243
73
164
243
72
162
243
71
160
243
70
158
0
0
0
0
0
0
255
255
255
255
255
255
255
255
255
255
255
255
244
64
147
244
64
145
244
62
143
244
61
141
244
61
139
245
61
137
245
59
136
245
58
134
245
57
132
245
56
131
245
56
129
246
56
128
245
55
127
246
55
126
246
54
125
246
53
124
246
53
122
246
52
121
246
51
120
246
50
119
247
51
117
246
50
116
247
49
115
247
48
113
247
48
113
246
47
111
247
47
110
247
46
109
247
45
107
248
45
106
248
44
105
248
44
104
0
0
0
0
0
0
0
0
0
255
255
255
255
255
255
255
255
255
255
255
255
255
255
255
249
38
92
248
38
91
249
36
90
249
36
89
249
35
87
249
35
86
249
34
85
249
34
84
249
33
82
242
73
166
242
73
163
243
72
162
242
71
160
243
70
158
243
69
156
243
68
155
243
67
153
244
67
151
0
0
0
0
0
0
255
255
255
255
255
255
255
255
255
255
255
255
244
60
139
245
60
137
245
59
135
245
58
133
245
58
133
246
57
131
245
56
130
246
55
129
246
55
127
246
54
126
246
54
125
245
54
124
246
53
122
246
52
121
247
51
120
247
50
119
247
50
117
247
50
116
246
49
114
247
49
114
247
48
112
247
47
111
247
46
110
247
46
109
247
45
107
248
45
106
247
44
105
248
44
104
248
43
103
248
42
101
248
42
100
0
0
0
0
0
0
0
0
0
255
255
255
255
255
255
255
255
255
255
255
255
255
255
255
255
255
255
249
36
88
249
35
86
250
34
84
250
33
83
249
33
83
250
32
81
250
32
80
250
31
79
250
31
77
243
71
158
244
69
156
244
69
155
243
68
153
244
66
152
243
66
150
244
65
148
244
65
146
245
63
145
0
0
0
0
0
0
255
255
255
255
255
255
255
255
255
255
255
255
255
255
255
245
57
131
245
57
130
246
55
128
246
55
127
246
55
126
246
54
124
246
53
123
246
52
122
247
52
121
247
52
119
246
50
119
246
50
117
247
50
116
246
49
114
247
49
114
246
47
112
247
47
111
247
46
110
247
46
108
247
45
107
248
44
106
247
44
104
248
44
104
248
43
102
248
42
101
248
41
100
248
41
98
248
40
97
248
40
96
0
0
0
0
0
0
0
0
0
255
255
255
255
255
255
255
255
255
255
255
255
255
255
255
255
255
255
249
34
84
250
33
82
250
32
81
250
32
80
249
31
78
249
31
78
250
30
76
250
29
75
250
29
74
250
28
72
244
67
151
244
66
149
244
65
148
244
65
146
244
63
145
244
62
142
244
62
141
245
61
139
245
60
137
0
0
0
0
0
0
255
255
255
255
255
255
255
255
255
255
255
255
255
255
255
255
255
255
245
54
125
246
53
124
246
53
122
246
52
121
246
51
120
247
51
118
246
50
117
247
49
116
246
49
115
247
49
114
247
47
112
247
47
111
247
46
110
247
46
108
247
46
108
247
45
106
248
44
104
248
44
104
248
43
102
248
42
101
248
42
99
248
41
99
248
41
97
248
40
96
248
39
94
248
39
94
248
38
92
0
0
0
0
0
0
0
0
0
255
255
255
255
255
255
255
255
255
255
255
255
255
255
255
255
255
255
255
255
255
250
31
79
250
31
78
250
30
76
250
30
75
250
29
74
250
28
72
250
28
71
251
27
69
251
26
68
251
26
67
244
63
144
245
62
142
245
61
141
245
61
139
245
59
137
245
59
135
245
58
134
245
58
133
246
56
131
245
56
130
246
55
129
255
255
255
255
255
255
255
255
255
255
255
255
255
255
255
255
255
255
255
255
255
255
255
255
247
50
117
246
49
116
247
49
114
247
49
113
247
47
112
247
47
111
248
47
109
248
46
109
247
46
107
248
44
106
248
44
104
247
43
104
248
43
103
248
42
101
248
42
100
248
41
99
248
40
97
248
40
96
249
39
95
248
38
93
249
38
92
248
37
91
249
37
89
249
36
89
0
0
0
0
0
0
0
0
0
255
255
255
255
255
255
255
255
255
255
255
255
255
255
255
255
255
255
250
31
76
250
30
75
250
29
73
250
28
73
250
28
71
250
27
69
250
26
68
251
25
67
250
26
66
251
25
65
251
24
63
251
23
62
245
60
137
245
59
135
245
59
134
245
57
132
245
57
131
245
56
129
246
55
128
245
55
127
246
55
126
246
54
124
246
54
124
246
53
122
0
0
0
255
255
255
255
255
255
255
255
255
255
255
255
255
255
255
255
255
255
255
255
255
247
47
111
247
47
109
248
46
109
247
46
107
247
44
106
248
45
105
248
44
104
248
42
102
248
42
101
248
42
100
248
41
98
248
41
97
249
40
96
248
39
95
249
39
94
248
38
92
249
38
91
249
37
89
249
36
89
248
36
87
249
35
86
0
0
0
0
0
0
0
0
0
0
0
0
255
255
255
255
255
255
255
255
255
255
255
255
255
255
255
255
255
255
255
255
255
250
27
71
251
27
70
251
26
69
251
26
67
250
26
66
251
25
65
251
24
64
251
23
62
251
23
61
252
22
60
251
22
58
251
21
57
245
57
130
245
56
130
245
56
128
246
55
127
246
54
126
246
53
125
246
53
123
246
53
122
246
52
121
246
52
120
247
51
118
246
50
117
246
50
116
0
0
0
255
255
255
255
255
255
255
255
255
255
255
255
255
255
255
255
255
255
255
255
255
255
255
255
247
43
103
248
42
102
248
43
101
248
42
100
248
41
98
248
40
97
248
40
96
248
39
94
249
39
93
248
38
92
249
37
91
248
37
90
248
36
89
249
36
87
249
35
86
249
35
84
250
33
83
0
0
0
0
0
0
0
0
0
0
0
0
255
255
255
255
255
255
255
255
255
255
255
255
255
255
255
255
255
255
255
255
255
255
255
255
251
26
67
251
25
66
251
24
65
251
24
63
251
24
62
252
23
61
251
22
59
252
22
58
252
21
58
251
20
56
252
19
55
252
19
54
252
18
52
246
54
126
246
54
125
246
53
124
246
53
122
246
52
121
246
51
120
247
51
118
246
50
117
247
49
116
247
49
114
246
48
113
247
48
112
247
47
111
247
46
109
0
0
0
255
255
255
255
255
255
255
255
255
255
255
255
255
255
255
255
255
255
255
255
255
255
255
255
255
255
255
248
40
96
248
39
94
248
39
93
249
38
92
249
37
91
249
37
90
249
36
88
249
35
88
250
35
86
249
35
85
249
34
83
0
0
0
0
0
0
0
0
0
0
0
0
0
0
0
0
0
0
255
255
255
255
255
255
255
255
255
255
255
255
255
255
255
255
255
255
255
255
255
255
255
255
250
25
65
251
24
63
251
24
62
251
22
61
252
22
60
251
21
58
252
21
57
251
20
56
251
20
55
252
19
54
252
18
52
252
18
51
252
17
50
252
17
49
252
16
47
246
52
121
246
51
120
247
50
118
247
50
117
247
50
115
247
48
114
247
48
113
247
48
112
247
47
111
247
47
109
247
46
108
248
45
107
247
44
106
248
44
104
248
43
103
0
0
0
255
255
255
255
255
255
255
255
255
255
255
255
255
255
255
255
255
255
255
255
255
255
255
255
255
255
255
0
0
0
0
0
0
0
0
0
0
0
0
0
0
0
0
0
0
0
0
0
0
0
0
0
0
0
0
0
0
0
0
0
0
0
0
255
255
255
255
255
255
255
255
255
255
255
255
255
255
255
255
255
255
255
255
255
255
255
255
255
255
255
255
255
255
255
255
255
255
255
255
251
22
60
252
21
58
252
21
57
252
20
55
252
19
55
252
19
54
252
18
52
252
18
51
252
17
49
252
16
48
252
16
47
253
16
46
252
14
44
252
14
43
253
13
43
247
49
116
246
48
114
247
48
113
247
48
112
247
47
111
247
47
110
247
45
108
248
45
107
248
45
105
247
44
104
248
44
103
248
42
102
248
42
101
247
41
100
248
41
99
248
40
97
248
40
96
255
255
255
255
255
255
255
255
255
255
255
255
255
255
255
255
255
255
255
255
255
255
255
255
255
255
255
255
255
255
255
255
255
255
255
255
255
255
255
255
255
255
255
255
255
255
255
255
255
255
255
255
255
255
255
255
255
255
255
255
255
255
255
255
255
255
255
255
255
255
255
255
255
255
255
255
255
255
255
255
255
255
255
255
255
255
255
252
21
59
251
21
57
251
20
56
252
20
55
252
19
54
252
18
52
252
18
51
252
17
49
252
17
49
252
16
47
252
15
45
253
15
44
252
14
43
253
14
42
253
13
40
253
12
40
253
12
38
253
12
37
247
47
110
247
46
109
247
46
108
247
45
107
247
44
106
247
44
104
247
43
103
248
43
102
248
42
100
248
41
100
248
41
98
248
41
97
248
39
96
249
39
95
248
38
93
249
38
92
249
37
91
249
36
89
249
36
88
255
255
255
255
255
255
255
255
255
255
255
255
255
255
255
255
255
255
255
255
255
255
255
255
255
255
255
255
255
255
255
255
255
255
255
255
255
255
255
255
255
255
255
255
255
255
255
255
255
255
255
255
255
255
255
255
255
255
255
255
255
255
255
255
255
255
255
255
255
255
255
255
255
255
255
251
20
56
252
20
54
251
19
53
252
18
52
252
18
51
252
17
49
252
16
48
252
16
46
252
15
45
253
15
44
252
14
43
252
13
42
252
13
41
253
12
39
253
11
38
253
11
37
253
11
36
254
10
34
253
10
34
253
8
32
248
44
106
247
44
105
248
43
103
248
42
101
248
42
100
248
41
99
248
41
98
248
40
97
248
40
96
248
39
95
248
39
93
248
38
92
249
37
91
249
37
90
248
37
88
249
35
87
249
35
85
249
34
85
249
34
83
250
33
82
250
33
81
255
255
255
255
255
255
255
255
255
255
255
255
255
255
255
255
255
255
255
255
255
255
255
255
255
255
255
255
255
255
255
255
255
255
255
255
255
255
255
255
255
255
255
255
255
255
255
255
255
255
255
255
255
255
255
255
255
255
255
255
255
255
255
251
19
53
252
19
52
251
18
50
252
17
50
253
16
48
252
16
47
252
16
46
252
15
45
253
14
43
253
14
42
253
13
41
253
13
39
253
11
38
253
11
37
254
11
36
254
10
34
253
9
33
254
9
32
254
8
30
254
8
30
254
7
28
254
6
26
248
42
100
248
41
100
248
41
98
248
41
97
249
39
95
248
40
94
249
38
93
249
37
92
249
37
91
249
37
90
249
36
88
249
36
87
249
35
86
249
34
84
249
33
83
250
33
81
250
33
80
249
32
80
250
31
78
250
31
76
249
30
76
250
30
75
250
29
73
250
28
72
251
27
71
255
255
255
255
255
255
255
255
255
255
255
255
255
255
255
255
255
255
255
255
255
255
255
255
255
255
255
255
255
255
255
255
255
255
255
255
255
255
255
255
255
255
255
255
255
252
18
51
252
17
49
252
17
48
252
16
47
253
15
45
252
15
44
253
14
43
253
14
42
253
13
40
253
13
39
253
12
38
253
11
37
253
11
35
253
10
35
253
10
33
254
9
32
254
8
31
253
8
29
254
6
29
254
6
27
254
5
26
255
5
24
254
4
24
255
4
22
249
39
96
249
39
95
249
38
93
249
38
92
248
37
91
248
37
89
249
36
88
249
35
86
249
35
85
249
34
84
250
34
83
249
33
82
250
33
80
249
32
80
250
32
78
250
31
77
250
30
76
250
29
74
250
29
73
250
28
72
250
28
71
251
27
69
251
26
68
250
26
67
251
25
66
251
25
64
251
24
63
251
23
62
251
22
61
251
22
60
251
22
58
251
21
57
251
20
56
251
19
54
252
19
53
252
18
52
252
17
51
252
17
50
252
17
48
253
16
47
253
15
46
252
15
45
252
14
43
253
14
42
253
13
40
253
13
40
253
11
38
254
11
37
253
10
36
254
10
34
253
10
34
253
8
32
254
8
31
254
7
30
254
7
28
254
6
27
254
5
26
254
5
25
254
4
23
254
4
21
255
3
20
255
3
19
255
2
18
255
2
17
248
38
90
249
36
90
249
36
88
249
35
87
249
34
86
249
34
84
249
34
83
250
32
82
250
33
80
250
31
79
250
31
78
250
30
77
249
30
76
250
30
74
250
28
73
250
28
71
250
28
70
250
27
70
251
26
68
250
26
67
250
25
66
251
24
64
251
23
63
251
24
62
251
23
61
251
22
59
252
21
58
252
21
57
252
20
56
252
20
54
252
19
53
252
19
52
252
18
51
252
17
49
252
16
48
252
16
47
252
15
46
252
15
45
253
14
43
253
14
42
252
13
41
253
12
39
253
12
38
253
11
36
254
11
35
253
9
34
254
9
33
253
9
32
253
8
30
254
7
30
254
6
28
254
6
27
254
6
25
254
5
24
254
4
23
255
4
21
254
4
21
255
3
19
254
2
18
255
1
17
255
0
15
255
0
14
255
0
14
255
0
14
249
35
86
249
34
84
250
34
83
250
33
81
249
32
81
249
32
80
249
31
78
249
31
77
250
30
75
250
30
75
250
29
73
250
28
72
250
28
71
250
27
69
251
27
68
251
25
67
251
25
65
251
24
64
251
24
63
251
24
62
251
23
60
251
22
60
251
21
58
251
21
57
252
20
56
252
20
54
252
19
53
252
18
52
252
18
51
252
17
50
252
17
48
252
16
47
253
15
46
252
14
45
252
14
43
253
14
42
253
13
41
253
12
39
253
12
38
253
11
37
254
10
36
254
10
34
253
9
33
253
9
32
254
8
30
254
8
29
254
6
28
254
6
27
254
5
26
254
5
24
254
4
24
254
3
22
254
4
21
254
2
19
254
2
18
255
1
16
255
1
15
255
0
15
255
0
14
255
0
14
255
0
14
255
0
14
255
0
15
255
0
14
249
32
80
249
32
80
250
31
78
250
30
77
250
30
76
250
29
75
250
29
73
250
28
72
250
28
71
250
27
69
250
26
68
251
26
67
251
25
66
251
24
64
251
24
63
251
24
61
251
23
61
251
22
60
251
21
58
251
20
56
251
20
55
252
20
55
252
19
53
251
18
52
252
18
51
252
17
49
252
16
48
252
16
47
252
16
45
252
15
44
253
14
43
252
14
42
253
13
40
253
12
39
254
12
38
253
11
37
253
10
35
253
10
34
253
9
33
253
9
32
253
8
30
254
8
30
254
7
28
253
6
27
254
5
25
254
5
24
254
4
23
254
4
22
255
3
20
255
3
20
254
2
18
255
1
17
254
1
16
255
1
15
255
0
14
255
0
14
255
0
14
255
0
14
255
0
14
255
0
14
255
0
15
255
0
14
255
0
14
255
0
14
250
30
75
250
29
74
250
29
73
250
28
72
251
28
70
250
27
69
251
26
68
251
25
66
251
25
66
251
25
64
251
24
63
251
24
61
251
23
60
251
22
59
252
22
58
252
21
57
251
20
56
252
20
55
252
19
53
252
18
52
252
17
50
252
17
49
252
16
48
252
16
47
252
16
45
252
14
45
252
14
43
252
13
42
253
13
40
253
12
39
253
12
38
253
11
37
254
10
35
253
10
35
253
9
33
254
8
32
254
8
31
253
8
29
254
7
28
254
6
26
254
6
26
254
5
24
254
4
23
255
3
22
255
3
20
254
2
19
255
2
18
255
1
17
254
1
16
255
0
14
255
0
14
255
0
14
255
0
14
255
0
14
255
0
14
255
0
14
255
0
14
255
0
14
255
0
14
255
0
14
255
0
14
255
0
15
255
0
14
255
0
14
251
27
71
251
27
69
251
26
68
251
25
67
250
25
66
251
24
64
251
24
63
251
23
62
252
22
61
251
22
59
251
21
58
252
20
57
252
20
55
251
19
54
252
19
53
252
18
52
252
18
51
252
17
50
252
16
48
252
16
47
253
16
45
252
14
44
252
14
43
253
14
42
253
13
40
253
12
39
253
11
38
253
11
37
253
11
35
254
10
35
254
9
33
254
9
32
253
8
31
254
7
29
254
7
28
254
6
27
254
6
25
254
5
24
254
4
23
254
4
22
255
3
20
254
3
19
255
1
18
255
1
17
255
0
16
255
0
14
255
0
14
255
0
14
255
0
14
255
0
14
255
0
14
255
0
14
255
0
14
255
0
15
255
0
14
255
0
14
255
0
14
255
0
15
255
0
14
255
0
14
255
0
14
255
0
14
255
0
14
255
0
14
251
25
65
251
25
64
251
24
63
251
24
62
251
23
60
252
22
59
251
22
57
251
21
57
251
20
56
252
19
54
252
18
53
251
19
52
252
18
50
252
17
49
252
17
48
253
16
46
253
15
46
252
15
45
253
14
43
253
13
41
253
13
41
253
12
40
253
12
38
253
11
37
253
10
35
254
10
34
253
9
33
254
8
32
254
8
31
254
8
29
254
7
28
254
7
27
254
5
26
254
5
24
255
5
23
254
3
22
255
3
20
254
2
20
255
2
18
255
1
16
255
1
15
255
0
14
255
0
14
255
0
14
255
0
14
255
0
14
255
0
14
255
0
15
255
0
14
255
0
14
255
0
15
255
0
15
255
0
14
255
0
15
255
0
14
255
0
14
255
0
14
255
0
14
255
0
14
255
0
15
255
0
14
255
0
15
255
0
14
255
0
14
251
23
61
251
22
59
252
22
58
252
21
57
252
20
55
252
19
54
251
19
53
252
18
51
252
17
51
252
18
49
253
17
48
252
15
47
253
16
45
253
15
44
253
14
43
253
13
41
253
13
41
253
12
39
253
12
38
253
11
37
253
10
35
253
9
35
254
9
33
254
8
32
254
8
30
254
7
29
254
7
28
254
6
26
254
5
25
255
5
24
255
4
22
255
4
21
255
3
21
254
2
19
255
2
18
255
1
17
255
1
15
255
0
14
255
0
14
255
0
14
255
0
14
255
0
14
255
0
14
255
0
14
255
0
15
255
0
14
255
0
14
255
0
14
255
0
14
255
0
14
255
0
14
255
0
14
255
0
14
255
0
14
255
0
14
255
0
14
255
0
14
255
0
14
255
0
14
255
0
14
255
0
14
255
0
14
255
0
14
255
0
14
252
20
55
252
19
54
252
19
53
252
18
51
252
18
51
253
17
49
252
16
47
252
16
47
252
15
46
253
15
44
252
14
43
253
13
42
253
13
40
253
12
39
253
12
38
253
11
36
253
11
35
253
9
34
253
9
33
253
9
32
253
8
30
254
8
29
253
7
28
254
6
26
254
5
25
254
5
24
254
4
23
254
4
22
254
3
20
255
3
19
255
1
17
255
1
17
255
1
15
255
0
14
255
0
14
255
0
14
255
0
14
255
0
15
255
0
14
255
0
14
255
0
14
255
0
14
255
0
14
255
0
14
255
0
15
255
0
14
255
0
14
255
0
14
255
0
14
255
0
14
255
0
14
255
0
14
255
0
14
255
0
14
255
0
14
255
0
14
255
0
14
255
0
14
255
0
14
255
0
14
255
0
14
255
0
14
255
0
14
255
0
14
252
17
50
252
17
49
252
16
47
252
16
46
253
15
45
252
15
44
252
14
43
252
13
41
253
13
41
253
12
39
253
12
38
253
11
37
253
11
36
253
10
34
253
9
33
254
9
32
254
7
31
254
7
29
253
7
28
254
6
26
255
6
25
254
5
24
254
5
23
255
3
22
255
3
20
255
2
19
255
2
17
255
2
16
255
1
15
255
0
14
255
0
14
255
0
14
255
0
14
255
0
14
255
0
14
255
0
14
255
0
14
255
0
14
255
0
14
255
0
14
255
0
14
255
0
14
255
0
14
255
0
14
255
0
14
255
0
14
255
0
14
255
0
14
255
0
14
255
0
14
255
0
14
255
0
15
255
0
14
255
0
14
255
0
14
255
0
14
255
0
14
255
0
14
255
0
14
255
0
15
255
0
14
255
0
14
255
0
14
255
0
14
