P3
# CREATOR: GIMP PNM Filter Version 1.1
64 64
255
255
168
0
255
168
0
255
168
0
255
168
0
255
168
0
255
168
0
255
168
0
255
168
0
255
168
0
0
0
0
255
168
0
255
168
0
255
168
0
255
168
0
255
168
0
255
168
0
255
168
0
255
168
0
255
168
0
255
168
0
255
168
0
255
168
0
255
168
0
255
168
0
255
168
0
255
168
0
255
168
0
255
168
0
0
0
0
0
0
0
0
0
0
255
168
0
255
168
0
255
168
0
255
168
0
255
168
0
0
0
0
0
0
0
0
0
0
255
168
0
255
168
0
255
168
0
255
168
0
255
168
0
255
168
0
255
168
0
0
0
0
0
0
0
255
168
0
255
168
0
255
168
0
255
168
0
255
168
0
255
168
0
255
168
0
255
168
0
255
168
0
255
168
0
255
168
0
255
168
0
255
168
0
255
168
0
255
168
0
255
168
0
255
168
0
255
168
0
255
168
0
255
168
0
255
168
0
255
168
0
255
168
0
255
168
0
0
0
0
0
0
0
0
0
0
255
168
0
255
168
0
255
168
0
255
168
0
255
168
0
255
168
0
255
168
0
255
168
0
255
168
0
255
168
0
255
168
0
255
168
0
255
168
0
255
168
0
255
168
0
255
168
0
255
168
0
255
168
0
0
0
0
0
0
0
0
0
0
255
168
0
255
168
0
255
168
0
255
168
0
0
0
0
0
0
0
0
0
0
255
168
0
255
168
0
255
168
0
255
168
0
255
168
0
255
168
0
0
0
0
0
0
0
0
0
0
0
0
0
255
168
0
255
168
0
255
168
0
255
168
0
255
168
0
255
168
0
255
168
0
255
168
0
255
168
0
255
168
0
255
168
0
255
168
0
255
168
0
255
168
0
255
168
0
255
168
0
255
168
0
255
168
0
255
168
0
255
168
0
255
168
0
255
168
0
255
168
0
0
0
0
0
0
0
0
0
0
255
168
0
255
168
0
255
168
0
255
168
0
0
0
0
0
0
0
255
168
0
255
168
0
255
168
0
255
168
0
255
168
0
255
168
0
255
168
0
255
168
0
255
168
0
255
168
0
255
168
0
255
168
0
0
0
0
0
0
0
0
0
0
0
0
0
255
168
0
255
168
0
255
168
0
0
0
0
0
0
0
0
0
0
255
168
0
255
168
0
255
168
0
255
168
0
255
168
0
0
0
0
0
0
0
0
0
0
0
0
0
255
168
0
255
168
0
255
168
0
255
168
0
255
168
0
255
168
0
255
168
0
255
168
0
255
168
0
255
168
0
255
168
0
255
168
0
255
168
0
255
168
0
255
168
0
255
168
0
255
168
0
255
168
0
255
168
0
255
168
0
255
168
0
255
168
0
255
168
0
255
168
0
0
0
0
0
0
0
0
0
0
255
168
0
255
168
0
255
168
0
0
0
0
0
0
0
0
0
0
0
0
0
255
168
0
255
168
0
255
168
0
255
168
0
255
168
0
255
168
0
255
168
0
255
168
0
255
168
0
255
168
0
255
168
0
255
168
0
0
0
0
0
0
0
0
0
0
0
0
0
0
0
0
0
0
0
0
0
0
0
0
0
0
0
0
0
0
0
255
168
0
255
168
0
255
168
0
0
0
0
0
0
0
0
0
0
0
0
0
255
168
0
255
168
0
255
168
0
255
168
0
255
168
0
255
168
0
255
168
0
255
168
0
255
168
0
255
168
0
255
168
0
255
168
0
255
168
0
255
168
0
255
168
0
255
168
0
255
168
0
255
168
0
255
168
0
255
168
0
255
168
0
255
168
0
255
168
0
255
168
0
255
168
0
0
0
0
0
0
0
0
0
0
255
168
0
255
168
0
255
168
0
0
0
0
0
0
0
0
0
0
255
168
0
255
168
0
255
168
0
255
168
0
255
168
0
255
168
0
255
168
0
255
168
0
255
168
0
255
168
0
255
168
0
255
168
0
255
168
0
0
0
0
0
0
0
0
0
0
0
0
0
0
0
0
0
0
0
0
0
0
0
0
0
0
0
0
0
0
0
0
0
0
0
0
0
255
168
0
0
0
0
0
0
0
0
0
0
255
168
0
255
168
0
255
168
0
255
168
0
255
168
0
255
168
0
255
168
0
255
168
0
255
168
0
255
168
0
255
168
0
255
168
0
255
168
0
255
168
0
255
168
0
255
168
0
255
168
0
255
168
0
255
168
0
255
168
0
255
168
0
255
168
0
255
168
0
255
168
0
255
168
0
255
168
0
0
0
0
0
0
0
0
0
0
255
168
0
255
168
0
255
168
0
0
0
0
0
0
0
0
0
0
255
168
0
255
168
0
255
168
0
255
168
0
255
168
0
255
168
0
255
168
0
255
168
0
255
168
0
255
168
0
255
168
0
255
168
0
255
168
0
0
0
0
0
0
0
0
0
0
0
0
0
0
0
0
0
0
0
0
0
0
0
0
0
0
0
0
0
0
0
0
0
0
0
0
0
0
0
0
0
0
0
0
0
0
255
168
0
255
168
0
255
168
0
255
168
0
255
168
0
255
168
0
255
168
0
255
168
0
255
168
0
255
168
0
255
168
0
255
168
0
255
168
0
255
168
0
255
168
0
255
168
0
255
168
0
255
168
0
255
168
0
255
168
0
255
168
0
255
168
0
0
0
0
0
0
0
255
168
0
255
168
0
255
168
0
0
0
0
0
0
0
0
0
0
0
0
0
255
168
0
255
168
0
0
0
0
0
0
0
0
0
0
255
168
0
255
168
0
255
168
0
255
168
0
255
168
0
255
168
0
255
168
0
255
168
0
255
168
0
255
168
0
255
168
0
255
168
0
0
0
0
0
0
0
0
0
0
0
0
0
255
255
255
255
255
255
255
255
255
255
255
255
255
255
255
255
255
255
0
0
0
0
0
0
0
0
0
0
0
0
0
0
0
0
0
0
255
168
0
255
168
0
255
168
0
255
168
0
255
168
0
255
168
0
255
168
0
255
168
0
255
168
0
255
168
0
255
168
0
255
168
0
255
168
0
255
168
0
255
168
0
255
168
0
255
168
0
255
168
0
255
168
0
255
168
0
255
168
0
0
0
0
0
0
0
0
0
0
0
0
0
255
168
0
255
168
0
255
168
0
0
0
0
0
0
0
0
0
0
0
0
0
0
0
0
0
0
0
0
0
0
0
0
0
0
0
0
255
168
0
255
168
0
255
168
0
255
168
0
255
168
0
255
168
0
255
168
0
255
168
0
255
168
0
255
168
0
255
168
0
0
0
0
0
0
0
0
0
0
255
255
255
255
255
255
255
255
255
255
255
255
255
255
255
255
255
255
255
255
255
255
255
255
255
255
255
0
0
0
0
0
0
0
0
0
255
168
0
255
168
0
255
168
0
255
168
0
255
168
0
255
168
0
255
168
0
255
168
0
255
168
0
255
168
0
255
168
0
255
168
0
255
168
0
255
168
0
255
168
0
255
168
0
255
168
0
255
168
0
255
168
0
255
168
0
255
168
0
255
168
0
255
168
0
0
0
0
0
0
0
0
0
0
0
0
0
255
168
0
255
168
0
0
0
0
0
0
0
0
0
0
0
0
0
0
0
0
0
0
0
0
0
0
0
0
0
0
0
0
0
0
0
255
168
0
255
168
0
255
168
0
255
168
0
255
168
0
255
168
0
255
168
0
255
168
0
255
168
0
255
168
0
0
0
0
0
0
0
0
0
0
255
255
255
255
255
255
255
255
255
255
255
255
255
255
255
255
255
255
255
255
255
255
255
255
255
255
255
255
255
255
0
0
0
255
255
255
255
168
0
255
168
0
255
168
0
255
168
0
255
168
0
255
168
0
255
168
0
255
168
0
255
168
0
255
168
0
255
168
0
255
168
0
255
168
0
255
168
0
255
168
0
255
168
0
255
168
0
255
168
0
255
168
0
255
168
0
255
168
0
255
168
0
255
168
0
255
168
0
0
0
0
0
0
0
0
0
0
0
0
0
0
0
0
0
0
0
0
0
0
0
0
0
0
0
0
0
0
0
0
0
0
0
0
0
0
0
0
0
0
0
0
0
0
255
168
0
255
168
0
255
168
0
255
168
0
255
168
0
255
168
0
255
168
0
255
168
0
255
168
0
255
168
0
255
255
255
0
0
0
255
255
255
255
255
255
255
255
255
255
255
255
0
0
0
0
0
0
255
255
255
255
255
255
255
255
255
255
255
255
255
255
255
255
255
255
255
255
255
255
255
255
255
168
0
255
168
0
255
168
0
255
168
0
255
168
0
255
168
0
255
168
0
255
168
0
255
168
0
255
168
0
255
168
0
255
168
0
255
168
0
255
168
0
255
168
0
255
168
0
255
168
0
255
168
0
255
168
0
255
168
0
255
168
0
255
168
0
255
168
0
255
168
0
0
0
0
0
0
0
0
0
0
0
0
0
0
0
0
0
0
0
255
255
255
255
255
255
255
255
255
255
255
255
255
255
255
255
255
255
0
0
0
255
255
255
255
255
255
255
168
0
255
168
0
255
168
0
255
168
0
255
168
0
255
168
0
255
168
0
255
168
0
255
168
0
255
255
255
255
255
255
255
255
255
255
255
255
255
255
255
0
0
0
0
0
0
0
0
0
0
0
0
0
0
0
255
255
255
255
255
255
255
255
255
255
255
255
255
255
255
255
255
255
255
255
255
255
168
0
255
168
0
255
168
0
255
168
0
255
168
0
255
168
0
255
168
0
255
168
0
255
168
0
255
168
0
255
168
0
255
168
0
255
168
0
255
168
0
255
168
0
255
168
0
255
168
0
255
168
0
255
168
0
255
168
0
255
168
0
255
168
0
255
168
0
255
168
0
0
0
0
0
0
0
0
0
0
0
0
0
255
255
255
255
255
255
255
255
255
255
255
255
255
255
255
255
255
255
255
255
255
255
255
255
255
255
255
255
255
255
255
255
255
255
168
0
255
168
0
255
168
0
255
168
0
255
168
0
255
168
0
255
168
0
255
168
0
255
255
255
255
255
255
255
255
255
255
255
255
255
255
255
0
0
0
0
0
0
0
0
0
0
0
0
0
0
0
0
0
0
255
255
255
255
255
255
255
255
255
255
255
255
255
255
255
255
255
255
255
168
0
255
168
0
255
168
0
255
168
0
255
168
0
255
168
0
255
168
0
255
168
0
255
168
0
255
168
0
255
168
0
255
168
0
255
168
0
255
168
0
255
168
0
255
168
0
255
168
0
255
168
0
255
168
0
255
168
0
255
168
0
255
168
0
255
168
0
255
168
0
0
0
0
0
0
0
0
0
0
0
0
0
255
255
255
255
255
255
255
255
255
255
255
255
255
255
255
255
255
255
255
255
255
255
255
255
255
255
255
255
255
255
255
255
255
255
255
255
255
168
0
255
168
0
255
168
0
255
168
0
255
168
0
255
168
0
255
168
0
255
255
255
255
255
255
255
255
255
255
255
255
255
255
255
0
0
0
0
0
0
0
0
0
0
0
0
0
0
0
0
0
0
255
255
255
255
255
255
255
255
255
255
255
255
255
255
255
255
255
255
255
168
0
255
168
0
255
168
0
255
168
0
255
168
0
255
168
0
255
168
0
255
168
0
255
168
0
255
168
0
255
168
0
255
168
0
255
168
0
255
168
0
255
168
0
255
168
0
255
168
0
255
168
0
255
168
0
255
168
0
255
168
0
255
168
0
255
168
0
255
168
0
0
0
0
0
0
0
0
0
0
255
255
255
255
255
255
255
255
255
255
255
255
255
255
255
255
255
255
255
255
255
255
255
255
255
255
255
255
255
255
255
255
255
255
255
255
255
255
255
255
255
255
255
168
0
255
168
0
255
168
0
255
168
0
255
168
0
255
168
0
255
255
255
255
255
255
255
255
255
255
255
255
255
255
255
0
0
0
0
0
0
0
0
0
0
0
0
0
0
0
0
0
0
0
0
0
255
255
255
255
255
255
255
255
255
255
255
255
255
255
255
255
168
0
255
168
0
255
168
0
255
168
0
255
168
0
255
168
0
255
168
0
255
168
0
255
168
0
255
168
0
255
168
0
255
168
0
255
168
0
255
168
0
255
168
0
255
168
0
255
168
0
255
168
0
255
168
0
255
168
0
255
168
0
255
168
0
255
168
0
255
168
0
0
0
0
0
0
0
0
0
0
255
255
255
255
255
255
255
255
255
255
255
255
255
255
255
255
255
255
255
255
255
255
255
255
255
255
255
255
255
255
255
255
255
255
255
255
255
255
255
255
255
255
255
168
0
255
168
0
255
168
0
255
168
0
255
168
0
255
168
0
255
168
0
255
255
255
255
255
255
255
255
255
255
255
255
0
0
0
0
0
0
0
0
0
0
0
0
0
0
0
0
0
0
0
0
0
255
255
255
255
255
255
255
255
255
255
255
255
255
255
255
255
255
255
255
168
0
255
168
0
255
168
0
255
168
0
255
168
0
255
168
0
255
168
0
255
168
0
255
168
0
255
168
0
255
168
0
255
168
0
255
168
0
255
168
0
255
168
0
255
168
0
255
168
0
255
168
0
255
168
0
255
168
0
255
168
0
255
168
0
255
168
0
0
0
0
0
0
0
0
0
0
255
255
255
255
255
255
255
255
255
255
255
255
255
255
255
0
0
0
255
255
255
255
255
255
255
255
255
255
255
255
255
255
255
255
255
255
255
255
255
255
255
255
255
255
255
255
168
0
255
168
0
255
168
0
255
168
0
255
168
0
255
168
0
255
255
255
255
255
255
255
255
255
255
255
255
255
255
255
0
0
0
0
0
0
0
0
0
0
0
0
0
0
0
0
0
0
255
255
255
255
255
255
255
255
255
255
255
255
255
255
255
255
255
255
255
168
0
255
168
0
255
168
0
255
168
0
255
168
0
255
168
0
255
168
0
255
168
0
255
168
0
255
168
0
255
168
0
255
168
0
255
168
0
255
168
0
255
168
0
255
168
0
255
168
0
255
168
0
255
168
0
255
168
0
255
168
0
255
168
0
255
168
0
255
255
255
0
0
0
255
255
255
255
255
255
255
255
255
255
255
255
255
255
255
0
0
0
0
0
0
0
0
0
255
255
255
255
255
255
255
255
255
255
255
255
255
255
255
255
255
255
255
255
255
255
255
255
255
168
0
255
168
0
255
168
0
255
168
0
255
168
0
255
168
0
255
255
255
255
255
255
255
255
255
255
255
255
255
255
255
255
255
255
0
0
0
0
0
0
0
0
0
0
0
0
0
0
0
255
255
255
255
255
255
255
255
255
255
255
255
255
255
255
255
255
255
255
168
0
255
168
0
255
168
0
255
168
0
255
168
0
255
168
0
255
168
0
255
168
0
255
168
0
255
168
0
255
168
0
255
168
0
255
168
0
255
168
0
255
168
0
255
168
0
255
168
0
255
168
0
255
168
0
255
168
0
255
168
0
255
168
0
255
255
255
255
255
255
255
255
255
255
255
255
255
255
255
255
255
255
255
255
255
0
0
0
0
0
0
0
0
0
0
0
0
0
0
0
0
0
0
255
255
255
255
255
255
255
255
255
255
255
255
255
255
255
255
255
255
255
168
0
255
168
0
255
168
0
255
168
0
255
168
0
255
168
0
255
255
255
255
255
255
255
255
255
255
255
255
255
255
255
255
255
255
255
255
255
0
0
0
0
0
0
0
0
0
255
255
255
255
255
255
255
255
255
255
255
255
255
255
255
255
255
255
255
255
255
255
168
0
255
168
0
255
168
0
255
168
0
255
168
0
255
168
0
255
168
0
255
168
0
255
168
0
255
168
0
255
168
0
255
168
0
255
168
0
255
168
0
255
168
0
255
168
0
255
168
0
255
168
0
255
168
0
255
168
0
255
168
0
255
168
0
255
255
255
255
255
255
255
255
255
255
255
255
255
255
255
255
255
255
255
255
255
0
0
0
0
0
0
0
0
0
0
0
0
0
0
0
0
0
0
0
0
0
255
255
255
255
255
255
255
255
255
255
255
255
255
255
255
255
168
0
255
168
0
255
168
0
255
168
0
255
168
0
255
168
0
255
255
255
255
255
255
255
255
255
255
255
255
255
255
255
255
255
255
255
255
255
255
255
255
255
255
255
255
255
255
255
255
255
255
255
255
255
255
255
255
255
255
255
255
255
255
255
255
255
255
255
255
168
0
255
168
0
255
168
0
255
168
0
255
168
0
255
168
0
255
168
0
255
168
0
255
168
0
255
168
0
255
168
0
255
168
0
255
168
0
255
168
0
255
168
0
255
168
0
255
168
0
255
168
0
255
168
0
255
168
0
255
168
0
255
168
0
255
255
255
255
255
255
255
255
255
255
255
255
255
255
255
255
255
255
255
255
255
0
0
0
0
0
0
0
0
0
0
0
0
0
0
0
0
0
0
0
0
0
255
255
255
255
255
255
255
255
255
255
255
255
255
255
255
255
255
255
255
168
0
255
168
0
255
168
0
255
168
0
255
168
0
255
255
255
255
255
255
255
255
255
255
255
255
255
255
255
255
255
255
255
255
255
255
255
255
255
255
255
255
255
255
255
255
255
255
255
255
255
255
255
255
255
255
255
255
255
255
255
255
255
255
255
255
168
0
255
168
0
255
168
0
255
168
0
255
168
0
255
168
0
255
168
0
255
168
0
255
168
0
255
168
0
255
168
0
255
168
0
255
168
0
255
168
0
255
168
0
255
168
0
255
168
0
255
168
0
255
168
0
255
168
0
255
168
0
255
168
0
255
255
255
255
255
255
255
255
255
255
255
255
255
255
255
255
255
255
255
255
255
0
0
0
0
0
0
0
0
0
0
0
0
0
0
0
0
0
0
0
0
0
255
255
255
255
255
255
255
255
255
255
255
255
255
255
255
255
255
255
255
168
0
255
168
0
255
168
0
255
168
0
255
168
0
255
255
255
255
255
255
255
255
255
255
255
255
255
255
255
255
255
255
255
255
255
255
255
255
255
255
255
255
255
255
255
255
255
255
255
255
255
255
255
255
255
255
255
255
255
255
255
255
255
255
255
255
168
0
255
168
0
255
168
0
255
168
0
255
168
0
255
168
0
255
168
0
255
168
0
255
168
0
255
168
0
255
168
0
255
168
0
255
168
0
255
168
0
255
168
0
255
168
0
255
168
0
255
168
0
255
168
0
255
168
0
255
168
0
255
168
0
255
255
255
255
255
255
255
255
255
255
255
255
255
255
255
255
255
255
255
255
255
255
255
255
0
0
0
0
0
0
0
0
0
0
0
0
0
0
0
255
255
255
255
255
255
255
255
255
255
255
255
255
255
255
255
255
255
255
255
255
255
255
255
255
168
0
255
168
0
255
168
0
255
168
0
255
255
255
255
255
255
255
255
255
255
255
255
255
255
255
255
255
255
255
255
255
255
255
255
255
255
255
255
255
255
255
255
255
255
255
255
255
255
255
255
255
255
255
255
255
255
255
255
255
255
255
255
168
0
255
168
0
255
168
0
255
168
0
255
168
0
255
168
0
255
168
0
255
168
0
255
168
0
255
168
0
255
168
0
255
168
0
255
168
0
255
168
0
255
168
0
255
168
0
255
168
0
255
168
0
255
168
0
255
168
0
255
168
0
255
168
0
255
255
255
255
255
255
255
255
255
255
255
255
255
255
255
255
255
255
255
255
255
255
255
255
0
0
0
0
0
0
0
0
0
0
0
0
0
0
0
255
255
255
255
255
255
255
255
255
255
255
255
255
255
255
255
255
255
255
255
255
255
255
255
255
168
0
255
168
0
255
168
0
255
168
0
255
168
0
255
255
255
255
255
255
255
255
255
255
255
255
255
255
255
255
255
255
255
255
255
255
255
255
255
255
255
255
255
255
255
255
255
255
255
255
255
255
255
255
255
255
255
255
255
255
255
255
255
168
0
255
168
0
255
168
0
255
168
0
255
168
0
255
168
0
255
168
0
255
168
0
255
168
0
255
168
0
255
168
0
255
168
0
255
168
0
255
168
0
255
168
0
255
168
0
255
168
0
255
168
0
255
168
0
255
168
0
255
168
0
255
168
0
255
255
255
255
255
255
255
255
255
255
255
255
255
255
255
255
255
255
255
255
255
255
255
255
255
255
255
0
0
0
0
0
0
0
0
0
255
255
255
255
255
255
255
255
255
255
255
255
255
255
255
255
255
255
255
255
255
255
255
255
255
255
255
255
168
0
255
168
0
255
168
0
255
168
0
255
168
0
255
255
255
255
255
255
255
255
255
255
255
255
255
255
255
255
255
255
255
255
255
255
255
255
255
255
255
255
255
255
255
255
255
255
255
255
255
255
255
255
255
255
255
255
255
255
255
255
255
168
0
255
168
0
255
168
0
255
168
0
255
168
0
255
168
0
255
168
0
255
168
0
255
168
0
255
168
0
255
168
0
255
168
0
255
168
0
255
168
0
255
168
0
255
168
0
255
168
0
255
168
0
255
168
0
255
168
0
255
168
0
255
168
0
255
255
255
255
255
255
255
255
255
255
255
255
255
255
255
255
255
255
255
255
255
255
255
255
255
255
255
255
255
255
255
255
255
255
255
255
255
255
255
255
255
255
255
255
255
255
255
255
255
255
255
255
255
255
255
255
255
255
255
255
255
255
255
255
168
0
255
168
0
255
168
0
255
168
0
255
168
0
255
168
0
255
255
255
255
255
255
255
255
255
255
255
255
255
255
255
255
255
255
255
255
255
255
255
255
255
255
255
255
255
255
255
255
255
255
255
255
255
255
255
255
255
255
0
0
0
255
168
0
255
168
0
255
168
0
255
168
0
255
168
0
255
168
0
255
168
0
255
168
0
255
168
0
255
168
0
255
168
0
255
168
0
255
168
0
255
168
0
255
168
0
255
168
0
255
168
0
255
168
0
255
168
0
255
168
0
255
168
0
255
168
0
255
255
255
255
255
255
255
255
255
255
255
255
255
255
255
255
255
255
255
255
255
255
255
255
255
255
255
255
255
255
255
255
255
255
255
255
255
255
255
255
255
255
255
255
255
255
255
255
255
255
255
255
255
255
255
255
255
255
255
255
255
255
255
255
168
0
255
168
0
255
168
0
255
168
0
255
168
0
255
168
0
255
255
255
255
255
255
255
255
255
255
255
255
255
255
255
255
255
255
255
255
255
255
255
255
255
255
255
255
255
255
255
255
255
255
255
255
255
255
255
0
0
0
0
0
0
0
0
0
255
168
0
255
168
0
255
168
0
255
168
0
255
168
0
0
0
0
255
168
0
255
168
0
255
168
0
255
168
0
255
168
0
255
168
0
255
168
0
255
168
0
255
168
0
255
168
0
255
168
0
255
168
0
255
168
0
255
168
0
255
168
0
255
255
255
255
255
255
255
255
255
255
255
255
255
255
255
255
255
255
255
255
255
255
255
255
255
255
255
255
255
255
255
255
255
255
255
255
255
255
255
255
255
255
255
255
255
255
255
255
255
255
255
255
255
255
255
255
255
255
255
255
255
255
255
255
168
0
255
168
0
255
168
0
255
168
0
255
168
0
255
168
0
0
0
0
0
0
0
255
255
255
255
255
255
255
255
255
255
255
255
255
255
255
255
255
255
255
255
255
255
255
255
255
255
255
0
0
0
0
0
0
0
0
0
0
0
0
255
168
0
255
168
0
255
168
0
255
168
0
255
168
0
0
0
0
0
0
0
0
0
0
255
168
0
255
168
0
255
168
0
255
168
0
255
168
0
255
168
0
255
168
0
255
168
0
255
168
0
255
168
0
255
168
0
255
168
0
255
168
0
255
168
0
255
168
0
255
255
255
255
255
255
255
255
255
255
255
255
255
255
255
255
255
255
255
255
255
255
255
255
255
255
255
255
255
255
255
255
255
255
255
255
255
255
255
255
255
255
255
255
255
255
255
255
255
255
255
255
255
255
0
0
0
255
255
255
255
168
0
255
168
0
255
168
0
255
168
0
255
168
0
0
0
0
0
0
0
0
0
0
0
0
0
255
255
255
255
255
255
255
255
255
255
255
255
255
255
255
0
0
0
0
0
0
0
0
0
0
0
0
0
0
0
0
0
0
255
168
0
0
0
0
0
0
0
0
0
0
0
0
0
0
0
0
0
0
0
0
0
0
0
0
0
0
0
0
255
168
0
255
168
0
255
168
0
255
168
0
255
168
0
255
168
0
255
168
0
255
168
0
255
168
0
255
168
0
255
168
0
255
168
0
255
168
0
255
168
0
255
255
255
255
255
255
255
255
255
255
255
255
255
255
255
255
255
255
255
255
255
255
255
255
255
255
255
255
255
255
255
255
255
255
255
255
255
255
255
255
255
255
255
244
223
255
255
255
255
255
255
0
0
0
0
0
0
0
0
0
255
168
0
255
168
0
255
168
0
255
168
0
255
168
0
255
168
0
0
0
0
0
0
0
0
0
0
0
0
0
0
0
0
0
0
0
0
0
0
0
0
0
0
0
0
0
0
0
0
0
0
0
0
0
0
0
0
0
0
0
0
0
0
0
0
0
0
0
0
0
0
0
0
0
0
0
0
0
0
0
0
0
0
0
0
0
0
0
0
0
255
168
0
255
168
0
255
168
0
255
168
0
255
168
0
255
168
0
255
168
0
255
168
0
255
168
0
255
168
0
255
168
0
255
168
0
255
168
0
255
168
0
255
168
0
255
255
255
255
255
255
255
255
255
255
255
255
255
255
255
255
255
255
255
255
255
255
255
255
255
255
255
255
255
255
255
255
255
255
255
255
255
255
255
255
255
255
255
255
255
255
255
255
0
0
0
0
0
0
0
0
0
255
168
0
255
168
0
255
168
0
255
168
0
255
168
0
255
168
0
255
168
0
0
0
0
0
0
0
0
0
0
0
0
0
0
0
0
0
0
0
0
0
0
0
0
0
0
0
0
0
0
0
0
0
0
0
0
0
0
0
0
0
0
0
0
0
0
0
0
0
0
0
0
0
0
0
0
0
0
255
255
255
0
0
0
0
0
0
0
0
0
255
168
0
255
168
0
255
168
0
255
168
0
255
168
0
255
168
0
255
168
0
255
168
0
255
168
0
255
168
0
255
168
0
255
168
0
255
168
0
255
168
0
255
168
0
255
255
255
0
0
0
255
255
255
255
255
255
255
255
255
255
255
255
255
255
255
255
255
255
255
255
255
255
255
255
255
255
255
255
255
255
255
255
255
255
255
255
255
255
255
255
255
255
0
0
0
0
0
0
0
0
0
0
0
0
255
168
0
255
168
0
255
168
0
255
168
0
255
168
0
255
168
0
255
168
0
255
168
0
0
0
0
0
0
0
0
0
0
0
0
0
0
0
0
0
0
0
0
0
0
0
0
0
0
0
0
0
0
0
0
0
0
0
0
0
0
0
0
0
0
0
255
255
255
255
255
255
255
255
255
255
255
255
0
0
0
0
0
0
0
0
0
255
168
0
255
168
0
255
168
0
255
168
0
255
168
0
255
168
0
255
168
0
255
168
0
255
168
0
255
168
0
255
168
0
255
168
0
255
168
0
255
168
0
255
168
0
0
0
0
0
0
0
0
0
0
255
255
255
255
255
255
255
255
255
255
255
255
255
255
255
255
255
255
255
255
255
255
255
255
255
255
255
255
255
255
255
255
255
255
255
255
255
255
255
0
0
0
0
0
0
0
0
0
0
0
0
255
168
0
255
168
0
255
168
0
255
168
0
255
168
0
255
168
0
255
168
0
255
168
0
0
0
0
0
0
0
0
0
0
0
0
0
0
0
0
0
0
0
0
0
0
0
0
0
0
0
0
255
223
162
255
246
230
0
0
0
0
0
0
0
0
0
255
255
255
255
255
255
255
255
255
255
255
255
0
0
0
0
0
0
0
0
0
255
168
0
255
168
0
255
168
0
255
168
0
255
168
0
255
168
0
255
168
0
255
168
0
255
168
0
255
168
0
255
168
0
255
168
0
255
168
0
255
168
0
255
168
0
255
168
0
0
0
0
0
0
0
0
0
0
0
0
0
0
0
0
255
255
255
255
255
255
255
255
255
255
255
255
255
255
255
255
255
255
255
255
255
255
255
255
255
255
255
0
0
0
0
0
0
0
0
0
0
0
0
255
168
0
255
168
0
255
168
0
255
168
0
255
168
0
255
168
0
255
168
0
0
0
0
0
0
0
0
0
0
0
0
0
0
0
0
0
0
0
0
0
0
0
0
0
0
0
0
255
251
242
255
255
255
255
255
255
255
255
255
255
255
255
0
0
0
0
0
0
0
0
0
255
255
255
255
255
255
255
255
255
0
0
0
0
0
0
0
0
0
255
168
0
255
168
0
255
168
0
255
168
0
255
168
0
255
168
0
255
168
0
255
168
0
255
168
0
255
168
0
255
168
0
255
168
0
255
168
0
255
168
0
255
168
0
255
168
0
0
0
0
0
0
0
0
0
0
0
0
0
0
0
0
0
0
0
0
0
0
0
0
0
0
0
0
255
255
255
255
255
255
255
255
255
255
255
255
0
0
0
0
0
0
0
0
0
0
0
0
255
168
0
255
168
0
255
168
0
255
168
0
255
168
0
255
168
0
255
168
0
0
0
0
0
0
0
0
0
0
0
0
0
255
194
76
255
225
167
255
246
230
0
0
0
0
0
0
0
0
0
255
255
255
255
255
255
255
255
255
255
255
255
255
255
255
0
0
0
0
0
0
0
0
0
255
255
255
255
255
255
255
255
255
255
255
255
0
0
0
0
0
0
255
168
0
255
168
0
255
168
0
255
168
0
255
168
0
255
168
0
255
168
0
255
168
0
255
168
0
255
168
0
255
168
0
255
168
0
255
168
0
255
168
0
255
168
0
255
168
0
255
168
0
0
0
0
0
0
0
0
0
0
0
0
0
0
0
0
0
0
0
0
0
0
0
0
0
0
0
0
0
0
0
0
0
0
0
0
0
0
0
0
0
0
0
0
0
0
0
0
0
255
168
0
255
168
0
255
168
0
255
168
0
0
0
0
0
0
0
0
0
0
0
0
0
0
0
0
0
0
0
255
251
242
255
255
255
255
255
255
255
255
255
0
0
0
0
0
0
0
0
0
0
0
0
255
255
255
255
255
255
255
255
255
255
255
255
0
0
0
0
0
0
0
0
0
0
0
0
255
255
255
255
255
255
255
255
255
0
0
0
0
0
0
0
0
0
255
168
0
255
168
0
255
168
0
255
168
0
255
168
0
255
168
0
255
168
0
255
168
0
255
168
0
255
168
0
255
168
0
255
168
0
255
168
0
255
168
0
255
168
0
255
168
0
255
168
0
255
168
0
255
168
0
0
0
0
0
0
0
0
0
0
0
0
0
0
0
0
0
0
0
0
0
0
0
0
0
0
0
0
0
0
0
0
0
0
0
0
0
255
168
0
255
168
0
255
168
0
0
0
0
0
0
0
0
0
0
0
0
0
0
0
0
0
0
0
0
0
0
0
0
0
255
255
255
255
255
255
255
255
255
255
255
255
0
0
0
0
0
0
0
0
0
0
0
0
255
255
255
255
255
255
255
255
255
255
255
255
255
255
255
0
0
0
0
0
0
0
0
0
255
255
255
255
255
255
255
255
255
0
0
0
0
0
0
0
0
0
255
168
0
255
168
0
255
168
0
255
168
0
255
168
0
255
168
0
255
168
0
255
168
0
255
168
0
255
168
0
255
168
0
255
168
0
255
168
0
255
168
0
255
168
0
255
168
0
255
168
0
255
168
0
255
168
0
255
168
0
255
168
0
255
168
0
255
168
0
0
0
0
0
0
0
0
0
0
0
0
0
0
0
0
0
0
0
255
168
0
255
168
0
0
0
0
0
0
0
0
0
0
0
0
0
0
0
0
0
0
0
0
0
0
0
0
0
0
0
0
0
0
0
0
0
0
255
255
255
255
255
255
255
255
255
255
255
255
255
255
255
0
0
0
0
0
0
0
0
0
255
255
255
255
255
255
255
255
255
255
255
255
255
255
255
0
0
0
0
0
0
0
0
0
255
255
255
255
255
255
255
255
255
0
0
0
0
0
0
0
0
0
255
168
0
255
168
0
255
168
0
255
168
0
255
168
0
255
168
0
255
168
0
255
168
0
255
168
0
255
168
0
255
168
0
255
168
0
255
168
0
255
168
0
255
168
0
255
168
0
255
168
0
255
168
0
255
168
0
255
168
0
255
168
0
255
168
0
255
168
0
255
168
0
255
168
0
255
168
0
255
168
0
0
0
0
0
0
0
0
0
0
0
0
0
0
0
0
0
0
0
0
0
0
0
0
0
0
0
0
255
255
255
255
255
255
255
255
255
0
0
0
0
0
0
0
0
0
255
255
255
255
255
255
255
255
255
255
255
255
255
255
255
0
0
0
0
0
0
0
0
0
255
255
255
255
255
255
255
255
255
255
255
255
255
255
255
0
0
0
0
0
0
0
0
0
255
255
255
255
255
255
255
255
255
0
0
0
0
0
0
0
0
0
255
168
0
255
168
0
255
168
0
255
168
0
255
168
0
255
168
0
255
168
0
255
168
0
255
168
0
255
168
0
255
168
0
255
168
0
255
168
0
255
168
0
255
168
0
255
168
0
255
168
0
255
168
0
255
168
0
255
168
0
255
168
0
255
168
0
255
168
0
0
0
0
0
0
0
0
0
0
0
0
0
0
0
0
0
0
0
0
0
0
0
0
0
0
0
0
0
0
0
0
0
0
0
0
0
0
0
0
0
0
0
255
255
255
255
255
255
0
0
0
0
0
0
0
0
0
0
0
0
255
255
255
255
255
255
255
255
255
255
255
255
255
255
255
0
0
0
0
0
0
0
0
0
255
255
255
255
255
255
255
255
255
255
255
255
255
255
255
0
0
0
0
0
0
0
0
0
255
255
255
255
255
255
0
0
0
0
0
0
0
0
0
255
168
0
255
168
0
255
168
0
255
168
0
255
168
0
255
168
0
255
168
0
255
168
0
255
168
0
255
168
0
255
168
0
255
168
0
255
168
0
255
168
0
255
168
0
255
168
0
0
0
0
0
0
0
0
0
0
0
0
0
0
0
0
0
0
0
0
0
0
0
0
0
0
0
0
0
0
0
0
0
0
0
0
0
0
0
0
0
0
0
0
0
0
255
255
255
255
255
255
255
255
255
0
0
0
0
0
0
0
0
0
255
255
255
255
255
255
255
255
255
0
0
0
0
0
0
0
0
0
255
255
255
255
255
255
255
255
255
255
255
255
255
255
255
0
0
0
0
0
0
0
0
0
255
255
255
255
255
255
255
255
255
255
255
255
255
255
255
0
0
0
0
0
0
0
0
0
255
255
255
255
255
255
0
0
0
0
0
0
0
0
0
255
168
0
255
168
0
255
168
0
255
168
0
255
168
0
255
168
0
255
168
0
255
168
0
255
168
0
255
168
0
255
168
0
255
168
0
255
168
0
255
168
0
255
168
0
0
0
0
0
0
0
0
0
0
0
0
0
0
0
0
0
0
0
0
0
0
0
0
0
0
0
0
0
0
0
0
0
0
0
0
0
0
0
0
255
255
255
255
255
255
255
255
255
255
255
255
255
255
255
0
0
0
0
0
0
0
0
0
0
0
0
255
255
255
255
255
255
255
255
255
0
0
0
0
0
0
0
0
0
255
255
255
255
255
255
255
255
255
255
255
255
255
255
255
0
0
0
0
0
0
0
0
0
255
255
255
255
255
255
255
255
255
255
255
255
255
255
255
0
0
0
0
0
0
0
0
0
255
255
255
255
255
255
0
0
0
0
0
0
0
0
0
255
168
0
255
168
0
255
168
0
255
168
0
255
168
0
255
168
0
255
168
0
255
168
0
255
168
0
255
168
0
255
168
0
255
168
0
255
168
0
255
168
0
255
168
0
0
0
0
0
0
0
0
0
0
0
0
0
255
255
255
0
0
0
0
0
0
0
0
0
0
0
0
255
255
255
255
255
255
0
0
0
0
0
0
0
0
0
255
255
255
255
255
255
255
255
255
255
255
255
0
0
0
0
0
0
0
0
0
0
0
0
255
255
255
255
255
255
255
255
255
0
0
0
0
0
0
0
0
0
255
255
255
255
255
255
255
255
255
255
255
255
255
255
255
0
0
0
0
0
0
0
0
0
0
0
0
255
255
255
255
255
255
255
255
255
255
255
255
0
0
0
0
0
0
0
0
0
0
0
0
255
255
255
0
0
0
0
0
0
0
0
0
255
168
0
255
168
0
255
168
0
255
168
0
255
168
0
255
168
0
255
168
0
255
168
0
255
168
0
255
168
0
255
168
0
255
168
0
255
168
0
255
168
0
255
168
0
255
168
0
0
0
0
0
0
0
255
255
255
255
255
255
255
255
255
255
255
255
255
255
255
255
255
255
255
255
255
255
255
255
0
0
0
0
0
0
0
0
0
255
255
255
255
255
255
255
255
255
255
255
255
0
0
0
0
0
0
0
0
0
0
0
0
255
255
255
255
255
255
255
255
255
255
255
255
0
0
0
0
0
0
0
0
0
255
255
255
255
255
255
255
255
255
255
255
255
255
255
255
0
0
0
0
0
0
0
0
0
255
255
255
255
255
255
255
255
255
255
255
255
255
255
255
0
0
0
0
0
0
0
0
0
0
0
0
0
0
0
0
0
0
255
168
0
255
168
0
255
168
0
255
168
0
255
168
0
255
168
0
255
168
0
255
168
0
255
168
0
255
168
0
255
168
0
255
168
0
255
168
0
255
168
0
255
168
0
255
168
0
0
0
0
0
0
0
0
0
0
255
255
255
255
255
255
255
255
255
255
255
255
255
255
255
255
255
255
255
255
255
255
255
255
0
0
0
0
0
0
0
0
0
255
255
255
255
255
255
255
255
255
255
255
255
0
0
0
0
0
0
0
0
0
0
0
0
255
255
255
255
255
255
255
255
255
255
255
255
0
0
0
0
0
0
0
0
0
255
255
255
255
255
255
255
255
255
255
255
255
255
255
255
0
0
0
0
0
0
0
0
0
255
255
255
255
255
255
255
255
255
255
255
255
255
255
255
0
0
0
0
0
0
0
0
0
0
0
0
0
0
0
0
0
0
255
168
0
255
168
0
255
168
0
255
168
0
255
168
0
255
168
0
255
168
0
255
168
0
255
168
0
255
168
0
255
168
0
255
168
0
255
168
0
255
168
0
255
168
0
255
168
0
255
168
0
0
0
0
0
0
0
0
0
0
255
255
255
255
255
255
255
255
255
255
255
255
255
255
255
255
255
255
255
255
255
255
255
255
0
0
0
0
0
0
0
0
0
255
255
255
255
255
255
255
255
255
255
255
255
0
0
0
0
0
0
0
0
0
0
0
0
255
255
255
255
255
255
255
255
255
0
0
0
0
0
0
0
0
0
0
0
0
255
255
255
255
255
255
255
255
255
255
255
255
0
0
0
0
0
0
0
0
0
0
0
0
255
255
255
255
255
255
255
255
255
255
255
255
255
255
255
0
0
0
0
0
0
0
0
0
0
0
0
255
168
0
255
168
0
255
168
0
255
168
0
255
168
0
255
168
0
255
168
0
255
168
0
255
168
0
255
168
0
255
168
0
255
168
0
255
168
0
255
168
0
255
168
0
255
168
0
255
168
0
255
168
0
255
168
0
0
0
0
0
0
0
0
0
0
0
0
0
255
255
255
255
255
255
255
255
255
255
255
255
255
255
255
255
255
255
0
0
0
0
0
0
0
0
0
0
0
0
255
255
255
255
255
255
255
255
255
0
0
0
0
0
0
0
0
0
0
0
0
255
255
255
255
255
255
255
255
255
255
255
255
0
0
0
0
0
0
0
0
0
255
255
255
255
255
255
255
255
255
255
255
255
0
0
0
0
0
0
0
0
0
255
255
255
255
255
255
255
255
255
255
255
255
255
255
255
0
0
0
0
0
0
0
0
0
0
0
0
0
0
0
255
168
0
255
168
0
255
168
0
255
168
0
255
168
0
255
168
0
255
168
0
255
168
0
255
168
0
255
168
0
255
168
0
255
168
0
255
168
0
255
168
0
255
168
0
255
168
0
255
168
0
255
168
0
255
168
0
255
168
0
0
0
0
0
0
0
0
0
0
0
0
0
255
255
255
255
255
255
255
255
255
255
255
255
255
255
255
255
255
255
0
0
0
0
0
0
0
0
0
255
255
255
255
255
255
255
255
255
255
255
255
0
0
0
0
0
0
0
0
0
255
255
255
255
255
255
255
255
255
255
255
255
0
0
0
0
0
0
0
0
0
255
255
255
255
255
255
255
255
255
255
255
255
255
255
255
0
0
0
0
0
0
0
0
0
255
255
255
255
255
255
255
255
255
0
0
0
0
0
0
0
0
0
0
0
0
0
0
0
255
168
0
255
168
0
255
168
0
255
168
0
255
168
0
255
168
0
255
168
0
255
168
0
255
168
0
255
168
0
255
168
0
255
168
0
255
168
0
255
168
0
255
168
0
255
168
0
255
168
0
255
168
0
255
168
0
255
168
0
255
168
0
255
168
0
0
0
0
0
0
0
0
0
0
255
255
255
255
255
255
255
255
255
255
255
255
255
255
255
255
255
255
0
0
0
0
0
0
0
0
0
0
0
0
255
255
255
255
255
255
255
255
255
0
0
0
0
0
0
0
0
0
0
0
0
255
255
255
255
255
255
255
255
255
0
0
0
0
0
0
0
0
0
255
255
255
255
255
255
255
255
255
255
255
255
255
255
255
0
0
0
0
0
0
0
0
0
0
0
0
0
0
0
0
0
0
0
0
0
0
0
0
0
0
0
255
168
0
255
168
0
255
168
0
255
168
0
255
168
0
255
168
0
255
168
0
255
168
0
255
168
0
255
168
0
255
168
0
255
168
0
255
168
0
255
168
0
255
168
0
255
168
0
255
168
0
255
168
0
255
168
0
255
168
0
255
168
0
255
168
0
255
168
0
255
168
0
255
168
0
0
0
0
0
0
0
0
0
0
255
255
255
255
255
255
255
255
255
255
255
255
255
255
255
0
0
0
0
0
0
0
0
0
0
0
0
255
255
255
255
255
255
255
255
255
0
0
0
0
0
0
0
0
0
0
0
0
255
255
255
255
255
255
255
255
255
0
0
0
0
0
0
0
0
0
0
0
0
255
255
255
255
255
255
255
255
255
255
255
255
0
0
0
0
0
0
0
0
0
0
0
0
0
0
0
0
0
0
0
0
0
0
0
0
255
168
0
255
168
0
255
168
0
255
168
0
255
168
0
255
168
0
255
168
0
255
168
0
255
168
0
255
168
0
255
168
0
255
168
0
255
168
0
255
168
0
255
168
0
255
168
0
255
168
0
255
168
0
255
168
0
255
168
0
255
168
0
255
168
0
255
168
0
255
168
0
255
168
0
255
168
0
0
0
0
0
0
0
0
0
0
0
0
0
255
255
255
255
255
255
255
255
255
255
255
255
255
255
255
0
0
0
0
0
0
0
0
0
255
255
255
255
255
255
255
255
255
0
0
0
0
0
0
0
0
0
0
0
0
255
255
255
255
255
255
255
255
255
255
255
255
0
0
0
0
0
0
0
0
0
255
255
255
255
255
255
255
255
255
255
255
255
255
255
255
0
0
0
0
0
0
0
0
0
0
0
0
0
0
0
0
0
0
255
168
0
255
168
0
255
168
0
255
168
0
255
168
0
255
168
0
255
168
0
255
168
0
255
168
0
255
168
0
255
168
0
255
168
0
255
168
0
255
168
0
255
168
0
255
168
0
255
168
0
255
168
0
255
168
0
255
168
0
255
168
0
255
168
0
255
168
0
255
168
0
255
168
0
255
168
0
255
168
0
255
168
0
0
0
0
0
0
0
0
0
0
0
0
0
255
255
255
255
255
255
255
255
255
255
255
255
0
0
0
0
0
0
0
0
0
255
255
255
255
255
255
255
255
255
255
255
255
0
0
0
0
0
0
0
0
0
255
255
255
255
255
255
255
255
255
0
0
0
0
0
0
0
0
0
0
0
0
255
255
255
255
255
255
255
255
255
255
255
255
0
0
0
0
0
0
0
0
0
0
0
0
0
0
0
0
0
0
255
168
0
255
168
0
255
168
0
255
168
0
255
168
0
255
168
0
255
168
0
255
168
0
255
168
0
255
168
0
255
168
0
255
168
0
255
168
0
255
168
0
255
168
0
255
168
0
255
168
0
255
168
0
255
168
0
255
168
0
255
168
0
255
168
0
255
168
0
255
168
0
255
168
0
255
168
0
255
168
0
255
168
0
255
168
0
255
168
0
0
0
0
0
0
0
0
0
0
0
0
0
0
0
0
0
0
0
255
255
255
0
0
0
0
0
0
0
0
0
0
0
0
255
255
255
255
255
255
255
255
255
0
0
0
0
0
0
0
0
0
0
0
0
255
255
255
255
255
255
255
255
255
0
0
0
0
0
0
0
0
0
0
0
0
0
0
0
0
0
0
0
0
0
0
0
0
0
0
0
0
0
0
0
0
0
0
0
0
255
168
0
255
168
0
255
168
0
255
168
0
255
168
0
255
168
0
255
168
0
255
168
0
255
168
0
255
168
0
255
168
0
255
168
0
255
168
0
255
168
0
255
168
0
255
168
0
255
168
0
255
168
0
255
168
0
255
168
0
255
168
0
255
168
0
255
168
0
255
168
0
255
168
0
255
168
0
255
168
0
255
168
0
255
168
0
255
168
0
255
168
0
255
168
0
0
0
0
0
0
0
0
0
0
0
0
0
0
0
0
0
0
0
0
0
0
0
0
0
0
0
0
0
0
0
255
255
255
255
255
255
255
255
255
255
255
255
0
0
0
0
0
0
0
0
0
0
0
0
0
0
0
0
0
0
0
0
0
0
0
0
0
0
0
0
0
0
0
0
0
0
0
0
0
0
0
0
0
0
0
0
0
0
0
0
255
168
0
255
168
0
255
168
0
255
168
0
255
168
0
255
168
0
255
168
0
255
168
0
255
168
0
255
168
0
255
168
0
255
168
0
255
168
0
255
168
0
255
168
0
255
168
0
255
168
0
255
168
0
255
168
0
255
168
0
255
168
0
255
168
0
255
168
0
255
168
0
255
168
0
255
168
0
255
168
0
255
168
0
255
168
0
255
168
0
255
168
0
255
168
0
255
168
0
255
168
0
255
168
0
255
168
0
0
0
0
0
0
0
0
0
0
0
0
0
0
0
0
0
0
0
0
0
0
0
0
0
0
0
0
0
0
0
0
0
0
0
0
0
0
0
0
0
0
0
0
0
0
0
0
0
0
0
0
0
0
0
0
0
0
0
0
0
0
0
0
0
0
0
0
0
0
0
0
0
0
0
0
255
168
0
255
168
0
255
168
0
255
168
0
255
168
0
255
168
0
255
168
0
255
168
0
255
168
0
255
168
0
255
168
0
255
168
0
255
168
0
255
168
0
255
168
0
255
168
0
255
168
0
255
168
0
255
168
0
255
168
0
255
168
0
255
168
0
255
168
0
255
168
0
255
168
0
255
168
0
255
168
0
255
168
0
255
168
0
255
168
0
255
168
0
255
168
0
255
168
0
255
168
0
255
168
0
255
168
0
255
168
0
255
168
0
255
168
0
255
168
0
255
168
0
255
168
0
255
168
0
255
168
0
0
0
0
0
0
0
0
0
0
0
0
0
0
0
0
0
0
0
0
0
0
0
0
0
0
0
0
0
0
0
0
0
0
0
0
0
0
0
0
0
0
0
0
0
0
0
0
0
255
168
0
255
168
0
255
168
0
255
168
0
255
168
0
255
168
0
255
168
0
255
168
0
255
168
0
255
168
0
255
168
0
255
168
0
255
168
0
255
168
0
255
168
0
255
168
0
255
168
0
255
168
0
255
168
0
255
168
0
255
168
0
255
168
0
255
168
0
255
168
0
255
168
0
255
168
0
255
168
0
255
168
0
255
168
0
255
168
0
255
168
0
255
168
0
255
168
0
255
168
0
255
168
0
255
168
0
255
168
0
255
168
0
255
168
0
255
168
0
255
168
0
255
168
0
255
168
0
255
168
0
255
168
0
255
168
0
255
168
0
255
168
0
255
168
0
255
168
0
255
168
0
0
0
0
0
0
0
0
0
0
255
168
0
255
168
0
255
168
0
255
168
0
255
168
0
255
168
0
255
168
0
255
168
0
255
168
0
255
168
0
255
168
0
255
168
0
255
168
0
255
168
0
255
168
0
255
168
0
255
168
0
255
168
0
255
168
0
255
168
0
255
168
0
255
168
0
255
168
0
255
168
0
255
168
0
255
168
0
255
168
0
255
168
0
255
168
0
255
168
0
255
168
0
255
168
0
255
168
0
255
168
0
255
168
0
255
168
0
255
168
0
255
168
0
255
168
0
255
168
0
255
168
0
255
168
0
255
168
0
255
168
0
255
168
0
255
168
0
255
168
0
255
168
0
255
168
0
255
168
0
255
168
0
255
168
0
255
168
0
255
168
0
255
168
0
255
168
0
255
168
0
255
168
0
255
168
0
255
168
0
255
168
0
255
168
0
255
168
0
255
168
0
255
168
0
255
168
0
255
168
0
255
168
0
255
168
0
255
168
0
255
168
0
255
168
0
255
168
0
255
168
0
255
168
0
255
168
0
255
168
0
255
168
0
255
168
0
255
168
0
255
168
0
255
168
0
255
168
0
255
168
0
255
168
0
255
168
0
255
168
0
255
168
0
255
168
0
255
168
0
255
168
0
255
168
0
255
168
0
255
168
0
255
168
0
255
168
0
255
168
0
255
168
0
255
168
0
255
168
0
255
168
0
255
168
0
255
168
0
255
168
0
255
168
0
255
168
0
255
168
0
255
168
0
255
168
0
255
168
0
255
168
0
255
168
0
255
168
0
255
168
0
255
168
0
255
168
0
255
168
0
255
168
0
255
168
0
255
168
0
255
168
0
255
168
0
255
168
0
255
168
0
255
168
0
255
168
0
255
168
0
255
168
0
255
168
0
255
168
0
255
168
0
255
168
0
255
168
0
255
168
0
255
168
0
255
168
0
255
168
0
255
168
0
255
168
0
255
168
0
255
168
0
255
168
0
255
168
0
255
168
0
255
168
0
255
168
0
255
168
0
255
168
0
255
168
0
255
168
0
255
168
0
255
168
0
255
168
0
255
168
0
255
168
0
255
168
0
255
168
0
255
168
0
255
168
0
255
168
0
255
168
0
255
168
0
255
168
0
255
168
0
255
168
0
255
168
0
255
168
0
255
168
0
255
168
0
255
168
0
255
168
0
255
168
0
255
168
0
255
168
0
255
168
0
255
168
0
255
168
0
255
168
0
255
168
0
255
168
0
255
168
0
255
168
0
255
168
0
255
168
0
255
168
0
255
168
0
255
168
0
255
168
0
255
168
0
255
168
0
255
168
0
255
168
0
255
168
0
255
168
0
255
168
0
255
168
0
255
168
0
255
168
0
255
168
0
255
168
0
255
168
0
255
168
0
255
168
0
255
168
0
255
168
0
255
168
0
255
168
0
255
168
0
255
168
0
255
168
0
255
168
0
255
168
0
255
168
0
255
168
0
255
168
0
255
168
0
255
168
0
255
168
0
255
168
0
255
168
0
255
168
0
255
168
0
255
168
0
255
168
0
255
168
0
255
168
0
255
168
0
255
168
0
255
168
0
255
168
0
255
168
0
255
168
0
255
168
0
255
168
0
255
168
0
255
168
0
255
168
0
255
168
0
255
168
0
255
168
0
255
168
0
255
168
0
255
168
0
255
168
0
255
168
0
255
168
0
255
168
0
255
168
0
255
168
0
255
168
0
255
168
0
255
168
0
255
168
0
255
168
0
255
168
0
255
168
0
255
168
0
255
168
0
255
168
0
255
168
0
255
168
0
255
168
0
255
168
0
255
168
0
255
168
0
255
168
0
255
168
0
255
168
0
255
168
0
255
168
0
255
168
0
255
168
0
255
168
0
255
168
0
255
168
0
255
168
0
255
168
0
255
168
0
255
168
0
255
168
0
255
168
0
255
168
0
255
168
0
255
168
0
255
168
0
255
168
0
255
168
0
255
168
0
255
168
0
255
168
0
255
168
0
255
168
0
255
168
0
255
168
0
255
168
0
255
168
0
255
168
0
255
168
0
255
168
0
255
168
0
255
168
0
255
168
0
255
168
0
255
168
0
255
168
0
255
168
0
255
168
0
255
168
0
255
168
0
255
168
0
255
168
0
255
168
0
255
168
0
255
168
0
255
168
0
255
168
0
255
168
0
255
168
0
255
168
0
255
168
0
255
168
0
255
168
0
255
168
0
255
168
0
255
168
0
255
168
0
255
168
0
255
168
0
255
168
0
255
168
0
255
168
0
255
168
0
255
168
0
255
168
0
255
168
0
255
168
0
255
168
0
255
168
0
255
168
0
255
168
0
255
168
0
255
168
0
255
168
0
255
168
0
255
168
0
255
168
0
255
168
0
255
168
0
255
168
0
255
168
0
255
168
0
255
168
0
255
168
0
255
168
0
255
168
0
255
168
0
255
168
0
255
168
0
255
168
0
255
168
0
255
168
0
255
168
0
255
168
0
255
168
0
255
168
0
255
168
0
255
168
0
255
168
0
255
168
0
255
168
0
255
168
0
255
168
0
255
168
0
255
168
0
255
168
0
255
168
0
255
168
0
255
168
0
255
168
0
255
168
0
255
168
0
255
168
0
255
168
0
255
168
0
255
168
0
255
168
0
255
168
0
255
168
0
255
168
0
255
168
0
255
168
0
255
168
0
255
168
0
255
168
0
255
168
0
255
168
0
255
168
0
255
168
0
255
168
0
255
168
0
255
168
0
255
168
0
255
168
0
255
168
0
255
168
0
255
168
0
255
168
0
255
168
0
255
168
0
255
168
0
255
168
0
255
168
0
255
168
0
255
168
0
255
168
0
255
168
0
255
168
0
255
168
0
255
168
0
255
168
0
255
168
0
255
168
0
255
168
0
255
168
0
255
168
0
255
168
0
255
168
0
255
168
0
255
168
0
255
168
0
255
168
0
255
168
0
255
168
0
255
168
0
255
168
0
255
168
0
255
168
0
255
168
0
255
168
0
255
168
0
255
168
0
255
168
0
255
168
0
255
168
0
255
168
0
255
168
0
255
168
0
255
168
0
255
168
0
255
168
0
255
168
0
255
168
0
255
168
0
255
168
0
255
168
0
255
168
0
255
168
0
255
168
0
255
168
0
255
168
0
255
168
0
255
168
0
255
168
0
255
168
0
255
168
0
255
168
0
255
168
0
255
168
0
255
168
0
255
168
0
255
168
0
255
168
0
255
168
0
255
168
0
255
168
0
255
168
0
255
168
0
255
168
0
255
168
0
255
168
0
255
168
0
255
168
0
255
168
0
255
168
0
255
168
0
255
168
0
255
168
0
255
168
0
255
168
0
255
168
0
255
168
0
255
168
0
255
168
0
255
168
0
255
168
0
255
168
0
255
168
0
255
168
0
255
168
0
255
168
0
255
168
0
255
168
0
255
168
0
255
168
0
255
168
0
255
168
0
255
168
0
255
168
0
255
168
0
255
168
0
255
168
0
255
168
0
255
168
0
255
168
0
255
168
0
255
168
0
255
168
0
255
168
0
255
168
0
255
168
0
255
168
0
255
168
0
255
168
0
255
168
0
255
168
0
255
168
0
255
168
0
255
168
0
255
168
0
255
168
0
255
168
0
255
168
0
255
168
0
255
168
0
255
168
0
255
168
0
255
168
0
255
168
0
255
168
0
255
168
0
255
168
0
255
168
0
255
168
0
255
168
0
255
168
0
255
168
0
255
168
0
